<svg width="90" height="90" viewBox="0 0 90 90" fill="none" xmlns="http://www.w3.org/2000/svg">
<path d="M0 9C0 4.05 4.05 0 9 0H81C83.3869 0 85.6761 0.948212 87.364 2.63604C89.0518 4.32387 90 6.61305 90 9V81C90 83.3869 89.0518 85.6761 87.364 87.364C85.6761 89.0518 83.3869 90 81 90H9C6.61305 90 4.32387 89.0518 2.63604 87.364C0.948212 85.6761 0 83.3869 0 81V9ZM63 63H81V9H9V63H27C27 67.95 31.05 72 36 72H54C56.3869 72 58.6761 71.0518 60.364 69.364C62.0518 67.6761 63 65.3869 63 63ZM22.5 40.5L31.5 31.5L40.5 40.5L58.5 22.5L67.5 31.5L40.5 58.5L22.5 40.5Z" fill="#447CE1"/>
</svg>
