<svg width="44" height="50" viewBox="0 0 44 50" fill="none" xmlns="http://www.w3.org/2000/svg">
<path d="M6.3816 6.38128C10.4675 2.29541 16.0091 0 21.7874 0C27.5656 0 33.1073 2.29541 37.1931 6.38128C41.279 10.4671 43.5744 16.0088 43.5744 21.787C43.5744 27.5653 41.279 33.1069 37.1931 37.1928L34.2231 40.1303C32.0337 42.2772 29.1937 45.0396 25.7007 48.4175C24.6509 49.4326 23.2477 50 21.7874 50C20.327 50 18.9238 49.4326 17.874 48.4175L9.13897 39.9202C8.04053 38.8417 7.12224 37.9334 6.3816 37.1928C4.35839 35.1697 2.75349 32.768 1.65853 30.1246C0.56357 27.4813 0 24.6482 0 21.787C0 18.9259 0.56357 16.0928 1.65853 13.4494C2.75349 10.8061 4.35839 8.40434 6.3816 6.38128ZM34.5383 9.03356C31.1559 5.65179 26.5686 3.7522 21.7856 3.75266C17.0026 3.75313 12.4157 5.65363 9.03388 9.03606C5.65211 12.4185 3.75252 17.0058 3.75299 21.7888C3.75346 26.5718 5.65395 31.1587 9.03638 34.5405L12.7546 38.2137C15.323 40.7232 17.8985 43.2253 20.4812 45.7201C20.8312 46.0588 21.2991 46.2481 21.7861 46.2481C22.2731 46.2481 22.741 46.0588 23.091 45.7201L31.5833 37.463C32.7593 36.3095 33.7426 35.3362 34.5358 34.5405C37.9175 31.1587 39.8173 26.5721 39.8173 21.7895C39.8173 17.007 37.9175 12.4204 34.5358 9.03856L34.5383 9.03356ZM21.7874 14.9662C22.7738 14.9662 23.7505 15.1605 24.6619 15.5379C25.5732 15.9154 26.4013 16.4687 27.0988 17.1662C27.7963 17.8637 28.3496 18.6918 28.727 19.6031C29.1045 20.5145 29.2988 21.4912 29.2988 22.4776C29.2988 23.4641 29.1045 24.4408 28.727 25.3521C28.3496 26.2635 27.7963 27.0915 27.0988 27.789C26.4013 28.4865 25.5732 29.0398 24.6619 29.4173C23.7505 29.7948 22.7738 29.9891 21.7874 29.9891C19.8193 29.9532 17.9439 29.1461 16.5648 27.7416C15.1857 26.3371 14.413 24.4473 14.413 22.4789C14.413 20.5105 15.1857 18.6207 16.5648 17.2162C17.9439 15.8116 19.8193 15.0046 21.7874 14.9687V14.9662ZM21.7874 18.7194C21.2938 18.7194 20.8051 18.8166 20.3491 19.0055C19.8932 19.1943 19.4789 19.4712 19.1299 19.8202C18.7809 20.1691 18.5041 20.5834 18.3152 21.0394C18.1263 21.4954 18.0291 21.9841 18.0291 22.4776C18.0291 22.9712 18.1263 23.4599 18.3152 23.9158C18.5041 24.3718 18.7809 24.7861 19.1299 25.1351C19.4789 25.4841 19.8932 25.7609 20.3491 25.9498C20.8051 26.1387 21.2938 26.2359 21.7874 26.2359C22.7838 26.2359 23.7394 25.84 24.4439 25.1355C25.1485 24.4309 25.5443 23.4753 25.5443 22.4789C25.5443 21.4825 25.1485 20.5269 24.4439 19.8223C23.7394 19.1177 22.7838 18.7219 21.7874 18.7219V18.7194Z" fill="#467DE2"/>
</svg>
