<svg width="64" height="50" viewBox="0 0 64 50" fill="none" xmlns="http://www.w3.org/2000/svg">
<path d="M61.3636 0H2.27273C1.01562 0 0 1.01562 0 2.27273V47.7273C0 48.9844 1.01562 50 2.27273 50H61.3636C62.6207 50 63.6364 48.9844 63.6364 47.7273V2.27273C63.6364 1.01562 62.6207 0 61.3636 0ZM58.5227 7.86932V44.8864H5.11364V7.86932L3.15341 6.34233L5.9446 2.75568L8.98438 5.12074H54.6591L57.6989 2.75568L60.4901 6.34233L58.5227 7.86932ZM54.6591 5.11364L31.8182 22.8693L8.97727 5.11364L5.9375 2.74858L3.14631 6.33523L5.10653 7.86222L29.3679 26.7259C30.0656 27.2679 30.924 27.5621 31.8075 27.5621C32.6911 27.5621 33.5494 27.2679 34.2472 26.7259L58.5227 7.86932L60.483 6.34233L57.6918 2.75568L54.6591 5.11364Z" fill="#467DE2"/>
</svg>
