<svg width="50" height="50" viewBox="0 0 50 50" fill="none" xmlns="http://www.w3.org/2000/svg">
<path d="M38.7037 27.0785C38.4596 26.834 38.1697 26.64 37.8506 26.5077C37.5314 26.3753 37.1893 26.3072 36.8438 26.3072C36.4983 26.3072 36.1562 26.3753 35.8371 26.5077C35.5179 26.64 35.228 26.834 34.9839 27.0785L30.7905 31.2719C28.8464 30.6931 25.2187 29.3778 22.9194 27.0785C20.6202 24.7793 19.3048 21.1515 18.726 19.2074L22.9194 15.014C23.1639 14.77 23.3579 14.48 23.4903 14.1609C23.6226 13.8417 23.6907 13.4996 23.6907 13.1541C23.6907 12.8086 23.6226 12.4665 23.4903 12.1474C23.3579 11.8282 23.1639 11.5383 22.9194 11.2942L12.3965 0.77133C12.1524 0.526816 11.8625 0.332832 11.5434 0.200479C11.2242 0.0681253 10.8821 0 10.5366 0C10.1911 0 9.84899 0.0681253 9.52985 0.200479C9.2107 0.332832 8.92078 0.526816 8.67669 0.77133L1.54217 7.90584C0.542499 8.90552 -0.0204761 10.2788 0.000569669 11.6809C0.0610762 15.4271 1.05286 28.4386 11.3074 38.6932C21.562 48.9477 34.5735 49.9369 38.3223 50H38.3959C39.785 50 41.0977 49.4528 42.0921 48.4584L49.2266 41.3239C49.4711 41.0798 49.6651 40.7899 49.7975 40.4707C49.9298 40.1516 49.9979 39.8095 49.9979 39.464C49.9979 39.1185 49.9298 38.7764 49.7975 38.4572C49.6651 38.1381 49.4711 37.8481 49.2266 37.604L38.7037 27.0785ZM38.3696 44.7359C35.0865 44.6807 23.8533 43.7994 15.0272 34.9707C6.17224 26.1157 5.31462 14.8431 5.26201 11.6257L10.5366 6.35109L17.3396 13.1541L13.9381 16.5557C13.6289 16.8646 13.4016 17.2458 13.2766 17.6647C13.1517 18.0836 13.1331 18.527 13.2226 18.9549C13.2857 19.2574 14.8299 26.4314 19.1969 30.7984C23.5639 35.1654 30.7379 36.7096 31.0404 36.7727C31.4681 36.8647 31.9119 36.8476 32.3312 36.723C32.7505 36.5984 33.1317 36.3704 33.4397 36.0598L36.8438 32.6583L43.6469 39.4613L38.3696 44.7359Z" fill="#447CE1"/>
</svg>
