<svg width="69" height="50" viewBox="0 0 69 50" fill="none" xmlns="http://www.w3.org/2000/svg">
<path d="M40.7084 21.875H59.4584V34.375H53.2084V28.125H40.7084V21.875ZM53.2084 0H21.9584C17.8144 0 13.8401 1.6462 10.9098 4.57646C7.97958 7.50671 6.33337 11.481 6.33337 15.625V43.75H0.083374V50H62.5834C64.241 50 65.8307 49.3415 67.0028 48.1694C68.1749 46.9973 68.8334 45.4076 68.8334 43.75V15.625C68.8334 13.5731 68.4292 11.5413 67.644 9.64557C66.8588 7.74986 65.7078 6.02737 64.2569 4.57646C62.806 3.12554 61.0835 1.97461 59.1878 1.18938C57.2921 0.404153 55.2603 0 53.2084 0ZM31.3334 43.75H12.5834V15.625C12.5834 13.1386 13.5711 10.754 15.3292 8.99587C17.0874 7.23772 19.472 6.25 21.9584 6.25C24.4448 6.25 26.8293 7.23772 28.5875 8.99587C30.3457 10.754 31.3334 13.1386 31.3334 15.625V43.75ZM62.5834 43.75H37.5834V15.625C37.5834 12.25 36.4896 8.9375 34.4584 6.25H53.2084C55.6948 6.25 58.0794 7.23772 59.8375 8.99587C61.5957 10.754 62.5834 13.1386 62.5834 15.625V43.75Z" fill="#447CE1"/>
</svg>
