<svg width="45" height="45" viewBox="0 0 45 45" fill="none" xmlns="http://www.w3.org/2000/svg">
<path d="M32.5688 23.2313L22.5 31.3313L12.45 22.9313C12.2604 22.7737 12.0416 22.655 11.8062 22.582C11.5707 22.5089 11.3232 22.483 11.0777 22.5056C10.8322 22.5282 10.5935 22.599 10.3754 22.7139C10.1572 22.8287 9.96386 22.9854 9.80627 23.175C9.64869 23.3646 9.52999 23.5834 9.45695 23.8189C9.38392 24.0543 9.35798 24.3019 9.38061 24.5474C9.40324 24.7929 9.47401 25.0315 9.58887 25.2497C9.70373 25.4678 9.86043 25.6612 10.05 25.8188L21.3 35.1938C21.6355 35.4696 22.0563 35.6203 22.4906 35.6203C22.9249 35.6203 23.3458 35.4696 23.6813 35.1938L34.9313 26.1375C35.1239 25.9828 35.284 25.7915 35.4025 25.5747C35.5209 25.3579 35.5954 25.1198 35.6215 24.8741C35.6476 24.6284 35.6249 24.38 35.5548 24.1431C35.4846 23.9062 35.3683 23.6856 35.2125 23.4938C35.0564 23.3025 34.8642 23.144 34.6467 23.0273C34.4292 22.9105 34.1908 22.8379 33.9452 22.8135C33.6995 22.7891 33.4515 22.8135 33.2153 22.8851C32.9791 22.9568 32.7594 23.0745 32.5688 23.2313Z" fill="#487EE6"/>
<path d="M21.3 22.0688C21.6355 22.3446 22.0564 22.4953 22.4907 22.4953C22.9249 22.4953 23.3458 22.3446 23.6813 22.0688L34.9313 13.0125C35.1239 12.8578 35.284 12.6665 35.4025 12.4497C35.5209 12.2329 35.5954 11.9948 35.6215 11.7491C35.6476 11.5034 35.625 11.255 35.5548 11.0181C35.4846 10.7812 35.3683 10.5606 35.2125 10.3688C35.0578 10.1762 34.8665 10.016 34.6497 9.89758C34.4329 9.77913 34.1948 9.7047 33.9491 9.67856C33.7034 9.65243 33.455 9.6751 33.2181 9.74529C32.9812 9.81547 32.7606 9.93178 32.5688 10.0875L22.5 18.2063L12.45 9.80628C12.0671 9.48802 11.5735 9.3349 11.0777 9.38061C10.5819 9.42633 10.1245 9.66712 9.80628 10.05C9.48802 10.4329 9.3349 10.9266 9.38061 11.4224C9.42633 11.9182 9.66712 12.3755 10.05 12.6938L21.3 22.0688Z" fill="#487EE6"/>
</svg>
