<svg width="98" height="90" viewBox="0 0 98 90" fill="none" xmlns="http://www.w3.org/2000/svg">
<path d="M34.4523 12.8571H57.7923C58.5192 12.8571 59.2341 13.042 59.8699 13.3944C60.5056 13.7467 61.0413 14.255 61.4266 14.8714L76.238 38.5714H95.1294C95.5015 38.5711 95.8673 38.6678 96.1907 38.8518C96.5142 39.0358 96.7841 39.3009 96.9739 39.6209C97.1638 39.941 97.267 40.3049 97.2735 40.677C97.28 41.0491 97.1895 41.4164 97.0108 41.7428L80.0394 72.8571H77.3094C75.0892 72.859 72.878 72.5737 70.7309 72.0085L84.2951 47.1428H10.4523L14.9438 72.1028C12.9135 72.6051 10.8296 72.8584 8.73805 72.8571H6.40234L1.08805 43.6243C0.9758 43.0073 1.00032 42.3732 1.15987 41.7667C1.31943 41.1602 1.61014 40.5962 2.01148 40.1143C2.41283 39.6324 2.91504 39.2445 3.48267 38.9779C4.05029 38.7113 4.66951 38.5726 5.29662 38.5714H8.73805V17.1428C8.73805 16.0062 9.18958 14.9161 9.9933 14.1124C10.797 13.3087 11.8871 12.8571 13.0238 12.8571H17.3095V0H34.4523V12.8571ZM17.3095 38.5714H66.1323L55.418 21.4286H17.3095V38.5714ZM8.73805 81.4285C15.0649 81.4373 21.1712 79.1046 25.8809 74.88C30.5906 79.1046 36.6969 81.4373 43.0237 81.4285C49.3506 81.4373 55.4569 79.1046 60.1666 74.88C64.8763 79.1046 70.9826 81.4373 77.3094 81.4285H85.8809V89.9999H77.3094C71.2908 90.0098 65.3765 88.4277 60.1666 85.4142C54.9566 88.4277 49.0424 90.0098 43.0237 89.9999C37.0051 90.0098 31.0908 88.4277 25.8809 85.4142C20.671 88.4277 14.7567 90.0098 8.73805 89.9999H0.166626V81.4285H8.73805Z" fill="#447CE1"/>
</svg>
