<svg width="131" height="90" viewBox="0 0 131 90" fill="none" xmlns="http://www.w3.org/2000/svg">
<path d="M0 0V8.18182H77.7273V69.5455H52.5436C50.7191 62.5132 44.3945 57.2727 36.8182 57.2727C29.2418 57.2727 22.9173 62.5132 21.0927 69.5455H16.3636V49.0909H8.18182V77.7273H21.0927C22.9173 84.7595 29.2418 90 36.8182 90C44.3945 90 50.7191 84.7595 52.5436 77.7273H86.5473C88.3718 84.7595 94.6964 90 102.273 90C109.849 90 116.174 84.7595 117.998 77.7273H130.909V44.3618L130.651 43.7195L122.47 19.1741L121.582 16.3636H85.9091V0H0ZM4.09091 16.3636V24.5455H40.9091V16.3636H4.09091ZM85.9091 24.5455H115.695L122.727 45.5114V69.5455H117.998C116.174 62.5132 109.849 57.2727 102.273 57.2727C94.6964 57.2727 88.3718 62.5132 86.5473 69.5455H85.9091V24.5455ZM8.18182 32.7273V40.9091H32.7273V32.7273H8.18182ZM36.8182 65.4545C41.3877 65.4545 45 69.0668 45 73.6364C45 78.2059 41.3877 81.8182 36.8182 81.8182C32.2486 81.8182 28.6364 78.2059 28.6364 73.6364C28.6364 69.0668 32.2486 65.4545 36.8182 65.4545ZM102.273 65.4545C106.842 65.4545 110.455 69.0668 110.455 73.6364C110.455 78.2059 106.842 81.8182 102.273 81.8182C97.7032 81.8182 94.0909 78.2059 94.0909 73.6364C94.0909 69.0668 97.7032 65.4545 102.273 65.4545Z" fill="#447CE1"/>
</svg>
