<svg width="51" height="50" viewBox="0 0 51 50" fill="none" xmlns="http://www.w3.org/2000/svg">
<path d="M48.3582 29.1766C48.6152 27.7666 48.753 26.3254 48.753 24.8841C48.753 21.6882 48.1264 18.5863 46.8919 15.6724C45.7013 12.8525 43.9905 10.3208 41.8161 8.14638C39.6598 5.9846 37.1037 4.26279 34.2901 3.07683C31.3699 1.84234 28.2743 1.21569 25.0784 1.21569C23.5744 1.21569 22.0642 1.35982 20.5979 1.64181C18.5689 0.566632 16.3081 0.00304671 14.0118 0C10.2708 0 6.74901 1.46008 4.10457 4.10452C2.79966 5.40273 1.76503 6.94673 1.06051 8.64726C0.355994 10.3478 -0.00444273 12.1711 4.13291e-05 14.0118C4.13291e-05 16.393 0.614154 18.7367 1.76091 20.8046C1.52906 22.1456 1.40373 23.518 1.40373 24.8841C1.40373 28.08 2.03037 31.1819 3.26486 34.0957C4.45549 36.9157 6.15996 39.4473 8.33442 41.6218C10.5089 43.7962 13.0405 45.5007 15.8604 46.6913C18.7806 47.9258 21.8762 48.5524 25.0721 48.5524C26.4633 48.5524 27.8544 48.4271 29.2205 48.1827C31.3198 49.3671 33.6885 50 36.1136 50C39.8547 50 43.3764 48.5462 46.0208 45.8955C48.6716 43.251 50.1254 39.7293 50.1254 35.9882C50.1316 33.607 49.5175 31.257 48.3582 29.1766ZM25.1724 39.3846C16.7628 39.3846 13.0029 35.2488 13.0029 32.1531C13.0029 30.5615 14.1747 29.4523 15.7915 29.4523C19.3884 29.4523 18.461 34.6221 25.1724 34.6221C28.6126 34.6221 30.5114 32.7547 30.5114 30.8435C30.5114 29.6967 29.9474 28.4183 27.6789 27.8606L20.1968 25.9932C14.1748 24.483 13.0781 21.2245 13.0781 18.1664C13.0781 11.8123 19.0626 9.42474 24.6836 9.42474C29.8597 9.42474 35.9632 12.2885 35.9632 16.0985C35.9632 17.7341 34.547 18.6803 32.9302 18.6803C29.8597 18.6803 30.4237 14.4316 24.2387 14.4316C21.1681 14.4316 19.4699 15.8228 19.4699 17.8092C19.4699 19.7957 21.895 20.4286 24.0005 20.9111L29.5401 22.1394C35.606 23.4929 37.1413 27.0335 37.1413 30.3672C37.1413 35.5245 33.1746 39.3846 25.1724 39.3846Z" fill="#487EE6"/>
</svg>
