<svg width="368" height="162" viewBox="0 0 368 162" fill="none" xmlns="http://www.w3.org/2000/svg">
<path d="M153.589 66.42V25.1294H163.328L182.516 56.039H182.632V25.1294H189.981V66.42H180.649L161.054 34.519H160.937V66.42H153.589Z" fill="#487EE6"/>
<path d="M204.11 49.6238H218.457C218.457 47.6798 217.893 46.0663 216.766 44.7833C215.638 43.5002 214.005 42.8587 211.867 42.8587C209.806 42.8587 208.037 43.5002 206.56 44.7833C205.082 46.0663 204.266 47.6798 204.11 49.6238ZM225.455 52.7731C225.455 53.5896 225.436 54.2117 225.397 54.6394H204.11C204.266 56.5834 205.121 58.2163 206.676 59.5382C208.231 60.8602 210.039 61.5211 212.1 61.5211C215.327 61.5211 217.796 60.3158 219.507 57.9053L224.172 61.6378C221.412 65.3702 217.407 67.2365 212.158 67.2365C207.765 67.2365 204.149 65.9146 201.311 63.2707C198.511 60.6269 197.112 57.0694 197.112 52.5982C197.112 48.127 198.511 44.5111 201.311 41.7506C204.11 38.9902 207.648 37.6099 211.925 37.6099C215.968 37.6099 219.234 38.9124 221.723 41.5174C224.211 44.1223 225.455 47.8742 225.455 52.7731Z" fill="#487EE6"/>
<path d="M252.12 41.8673L247.571 45.8914C246.91 45.036 246.035 44.3167 244.947 43.7335C243.858 43.1503 242.692 42.8587 241.448 42.8587C240.203 42.8587 239.134 43.1114 238.24 43.6169C237.385 44.1223 236.957 44.8805 236.957 45.8914C236.957 46.8634 237.404 47.5826 238.298 48.0492C239.193 48.5158 240.767 49.0212 243.022 49.5655C244.228 49.8377 245.297 50.1682 246.23 50.557C247.163 50.9069 248.096 51.3929 249.029 52.015C250.001 52.637 250.74 53.4535 251.245 54.4644C251.79 55.4753 252.062 56.6222 252.062 57.9053C252.062 61.0934 250.954 63.4457 248.738 64.962C246.56 66.4783 243.78 67.2365 240.398 67.2365C238.182 67.2365 236.043 66.8282 233.983 66.0118C231.922 65.1953 230.231 64.0678 228.909 62.6292L233.516 58.3135C235.305 60.6463 237.696 61.8127 240.689 61.8127C241.895 61.8127 242.945 61.5406 243.839 60.9962C244.733 60.4519 245.18 59.616 245.18 58.4885C245.18 57.3998 244.694 56.6028 243.722 56.0974C242.789 55.553 241.137 55.0087 238.765 54.4644C236.238 53.8423 234.216 52.9675 232.7 51.84C231.222 50.6736 230.483 48.9046 230.483 46.5329C230.483 43.6169 231.572 41.4007 233.749 39.8844C235.927 38.3681 238.551 37.6099 241.623 37.6099C243.722 37.6099 245.724 37.9793 247.63 38.718C249.535 39.4567 251.032 40.5065 252.12 41.8673Z" fill="#487EE6"/>
<path d="M258.263 66.42V38.4264H265.262V66.42H258.263ZM258.555 31.8946C257.7 31.0392 257.272 30.0478 257.272 28.9202C257.272 27.7927 257.7 26.8207 258.555 26.0042C259.41 25.1489 260.46 24.7212 261.704 24.7212C262.987 24.7212 264.057 25.1294 264.912 25.9459C265.806 26.7235 266.253 27.715 266.253 28.9202C266.253 30.1255 265.806 31.1364 264.912 31.9529C264.057 32.7305 262.987 33.1193 261.704 33.1193C260.46 33.1193 259.41 32.711 258.555 31.8946Z" fill="#487EE6"/>
<path d="M273.869 22.3301H280.867V41.9839H281.042C283.375 39.0679 286.505 37.6099 290.431 37.6099C294.397 37.6099 297.644 39.0096 300.171 41.809C302.737 44.6083 304.02 48.1075 304.02 52.3066C304.02 56.5056 302.756 60.0437 300.229 62.9208C297.741 65.7979 294.417 67.2365 290.256 67.2365C288.274 67.2365 286.407 66.8088 284.658 65.9534C282.908 65.0592 281.567 63.815 280.634 62.221H280.517V66.42H273.869V22.3301ZM294.747 58.6634C296.186 56.8361 296.905 54.7171 296.905 52.3066C296.905 49.896 296.186 47.7965 294.747 46.008C293.347 44.2195 291.384 43.3253 288.857 43.3253C286.407 43.3253 284.424 44.2584 282.908 46.1246C281.392 47.9909 280.634 50.0904 280.634 52.4232C280.634 54.756 281.392 56.8361 282.908 58.6634C284.424 60.4908 286.407 61.4045 288.857 61.4045C291.384 61.4045 293.347 60.4908 294.747 58.6634Z" fill="#487EE6"/>
<path d="M316.137 49.6238H330.484C330.484 47.6798 329.92 46.0663 328.792 44.7833C327.665 43.5002 326.032 42.8587 323.893 42.8587C321.833 42.8587 320.064 43.5002 318.586 44.7833C317.109 46.0663 316.292 47.6798 316.137 49.6238ZM337.482 52.7731C337.482 53.5896 337.463 54.2117 337.424 54.6394H316.137C316.292 56.5834 317.148 58.2163 318.703 59.5382C320.258 60.8602 322.066 61.5211 324.127 61.5211C327.354 61.5211 329.823 60.3158 331.533 57.9053L336.199 61.6378C333.438 65.3702 329.434 67.2365 324.185 67.2365C319.792 67.2365 316.176 65.9146 313.338 63.2707C310.538 60.6269 309.138 57.0694 309.138 52.5982C309.138 48.127 310.538 44.5111 313.338 41.7506C316.137 38.9902 319.675 37.6099 323.952 37.6099C327.995 37.6099 331.261 38.9124 333.75 41.5174C336.238 44.1223 337.482 47.8742 337.482 52.7731Z" fill="#487EE6"/>
<path d="M344.377 66.42V22.3301H351.375V66.42H344.377Z" fill="#487EE6"/>
<path d="M359.982 66.42V38.4264H366.98V66.42H359.982ZM360.273 31.8946C359.418 31.0392 358.99 30.0478 358.99 28.9202C358.99 27.7927 359.418 26.8207 360.273 26.0042C361.129 25.1489 362.178 24.7212 363.423 24.7212C364.706 24.7212 365.775 25.1294 366.63 25.9459C367.524 26.7235 367.971 27.715 367.971 28.9202C367.971 30.1255 367.524 31.1364 366.63 31.9529C365.775 32.7305 364.706 33.1193 363.423 33.1193C362.178 33.1193 361.129 32.711 360.273 31.8946Z" fill="#487EE6"/>
<path d="M148.573 137.7L166.536 96.4094H172.893L190.681 137.7H182.282L178.433 128.252H160.529L156.797 137.7H148.573ZM163.037 121.954H175.867L169.51 105.157L163.037 121.954ZM161.054 91.3356C160.276 90.5191 159.888 89.5666 159.888 88.4779C159.888 87.3893 160.276 86.4367 161.054 85.6202C161.87 84.8038 162.862 84.3955 164.028 84.3955C165.234 84.3955 166.244 84.7843 167.061 85.5619C167.877 86.3395 168.286 87.3115 168.286 88.4779C168.286 89.6443 167.877 90.6163 167.061 91.3939C166.244 92.1715 165.234 92.5603 164.028 92.5603C162.862 92.5603 161.87 92.1521 161.054 91.3356ZM172.485 91.3356C171.707 90.5191 171.318 89.5666 171.318 88.4779C171.318 87.3893 171.707 86.4367 172.485 85.6202C173.301 84.8038 174.293 84.3955 175.459 84.3955C176.664 84.3955 177.675 84.7843 178.492 85.5619C179.308 86.3395 179.716 87.3115 179.716 88.4779C179.716 89.6443 179.308 90.6163 178.492 91.3939C177.675 92.1715 176.664 92.5603 175.459 92.5603C174.293 92.5603 173.301 92.1521 172.485 91.3356Z" fill="#487EE6"/>
<path d="M222.876 93.6101V137.7H216.228V133.501H216.111C215.178 135.095 213.837 136.339 212.087 137.233C210.338 138.089 208.471 138.516 206.488 138.516C202.328 138.516 198.985 137.078 196.457 134.201C193.969 131.324 192.725 127.786 192.725 123.587C192.725 119.388 193.989 115.888 196.516 113.089C199.082 110.29 202.348 108.89 206.313 108.89C210.24 108.89 213.37 110.348 215.703 113.264H215.878V93.6101H222.876ZM201.939 117.288C200.54 119.076 199.84 121.176 199.84 123.587C199.84 125.997 200.54 128.116 201.939 129.943C203.378 131.771 205.361 132.684 207.888 132.684C210.338 132.684 212.32 131.771 213.837 129.943C215.353 128.116 216.111 126.036 216.111 123.703C216.111 121.37 215.353 119.271 213.837 117.405C212.32 115.538 210.338 114.605 207.888 114.605C205.361 114.605 203.378 115.5 201.939 117.288Z" fill="#487EE6"/>
<path d="M231.495 137.7V109.706H238.494V137.7H231.495ZM231.787 103.175C230.932 102.319 230.504 101.328 230.504 100.2C230.504 99.0727 230.932 98.1007 231.787 97.2842C232.642 96.4289 233.692 96.0012 234.936 96.0012C236.219 96.0012 237.289 96.4094 238.144 97.2259C239.038 98.0035 239.485 98.995 239.485 100.2C239.485 101.406 239.038 102.416 238.144 103.233C237.289 104.01 236.219 104.399 234.936 104.399C233.692 104.399 232.642 103.991 231.787 103.175Z" fill="#487EE6"/>
<path d="M280.401 108.89C283.823 108.89 286.389 109.998 288.1 112.214C289.849 114.391 290.724 117.055 290.724 120.204V137.7H283.726V122.187C283.726 117.21 281.976 114.722 278.477 114.722C276.455 114.722 274.919 115.5 273.869 117.055C272.82 118.571 272.295 120.36 272.295 122.42V137.7H265.296V120.787C265.296 118.96 264.849 117.502 263.955 116.413C263.1 115.286 261.817 114.722 260.106 114.722C258.123 114.722 256.607 115.48 255.557 116.996C254.507 118.474 253.982 120.243 253.982 122.304V137.7H246.984V109.706H253.632V114.197H253.749C254.41 112.681 255.499 111.417 257.015 110.406C258.531 109.395 260.339 108.89 262.439 108.89C266.521 108.89 269.437 110.659 271.187 114.197C273.131 110.659 276.202 108.89 280.401 108.89Z" fill="#487EE6"/>
<g clip-path="url(#clip0)">
<path d="M21.2745 42.549C33.0241 42.549 42.5491 33.0241 42.5491 21.2745C42.5491 9.52493 33.0241 0 21.2745 0C9.52493 0 0 9.52493 0 21.2745C0 33.0241 9.52493 42.549 21.2745 42.549Z" fill="#487EE6"/>
<path d="M21.2745 162C33.0241 162 42.5491 152.475 42.5491 140.725C42.5491 128.976 33.0241 119.451 21.2745 119.451C9.52493 119.451 0 128.976 0 140.725C0 152.475 9.52493 162 21.2745 162Z" fill="#487EE6"/>
<path d="M107.596 42.549C119.346 42.549 128.87 33.0241 128.87 21.2745C128.87 9.52493 119.346 0 107.596 0C95.8463 0 86.3214 9.52493 86.3214 21.2745C86.3214 33.0241 95.8463 42.549 107.596 42.549Z" fill="#487EE6"/>
<path d="M107.596 162C119.346 162 128.87 152.475 128.87 140.725C128.87 128.976 119.346 119.451 107.596 119.451C95.8463 119.451 86.3214 128.976 86.3214 140.725C86.3214 152.475 95.8463 162 107.596 162Z" fill="#487EE6"/>
<path d="M31.7172 21.2745L85.7542 92.6381L97.309 108.608L96.753 89.0682V21.23H118.339V140.725H97.2089L40.3916 67.4934L31.7172 54.2372L32.0619 76.8351V140.725H10.476V21.2745H31.7172Z" fill="#487EE6"/>
</g>
<defs>
<clipPath id="clip0">
<rect width="128.87" height="162" fill="white"/>
</clipPath>
</defs>
</svg>
