<svg width="100" height="100" viewBox="0 0 100 100" fill="none" xmlns="http://www.w3.org/2000/svg">
<g clip-path="url(#clip0)">
<path d="M0 75C0 77.9469 1.17063 80.773 3.25437 82.8568C5.33811 84.9405 8.16426 86.1111 11.1111 86.1111H88.8889C91.8357 86.1111 94.6619 84.9405 96.7456 82.8568C98.8294 80.773 100 77.9469 100 75V63.8889H0V75Z" fill="#DA0001"/>
<path d="M0 36.1111H100V63.8889H0V36.1111Z" fill="#EEEEEE"/>
<path d="M100 36.1111V25C100 22.0532 98.8294 19.227 96.7456 17.1433C94.6619 15.0595 91.8357 13.8889 88.8889 13.8889H11.1111C8.16426 13.8889 5.33811 15.0595 3.25437 17.1433C1.17063 19.227 0 22.0532 0 25L0 36.1111H100Z" fill="#239F40"/>
<path d="M0 63.8889H100V66.6667H0V63.8889Z" fill="#E96667"/>
<path d="M54.0695 41.5803C56.7279 42.9414 62.5084 49.7831 56.2862 57.4998C60.1501 56.6442 65.0695 45.2553 54.0695 41.5803ZM45.9112 41.5803C34.914 45.2553 39.8306 56.6442 43.6945 57.4998C37.4723 49.7831 43.2529 42.9414 45.9112 41.5803ZM49.9473 41.1831C50.0584 41.7303 53.0056 42.3942 52.6529 39.5914C52.1862 40.7248 50.8362 40.6914 49.964 40.1664C48.764 40.8359 47.6445 40.672 47.2195 39.5359C46.8084 41.6303 48.8501 42.2442 49.9473 41.1831Z" fill="#BE1931"/>
<path d="M57.0501 49.7332C57.0084 46.2666 55.1696 43.1999 53.3584 41.9582C54.5529 43.4221 58.2251 51.5027 51.1779 56.8221L51.3084 42.6638L49.989 41.5027L48.6696 42.6082L48.8918 56.9027L48.8418 56.861C41.7223 51.5444 45.4168 43.4249 46.614 41.9582C44.8029 43.1999 42.9612 46.2666 42.9223 49.7332C42.8862 52.7082 44.2473 55.9638 48.0168 58.636C46.4947 59.0282 44.9273 59.2159 43.3557 59.1944C44.6446 59.8971 47.0779 59.7277 48.9307 59.5582L48.9334 59.7471L50.039 60.961L51.1501 59.6971V59.5527C53.0168 59.7249 55.5029 59.911 56.814 59.1971C55.1906 59.224 53.5714 59.0248 52.0029 58.6055C55.7362 55.936 57.0862 52.6971 57.0501 49.7332Z" fill="#BE1931"/>
<path d="M0 33.3333H100V36.111H0V33.3333Z" fill="#7BC58C"/>
</g>
<defs>
<clipPath id="clip0">
<rect width="100" height="100" fill="white"/>
</clipPath>
</defs>
</svg>
