<svg width="100" height="100" viewBox="0 0 100 100" fill="none" xmlns="http://www.w3.org/2000/svg">
<path d="M100 75C100 77.9469 98.8294 80.773 96.7456 82.8568C94.6619 84.9405 91.8357 86.1111 88.8889 86.1111H11.1111C8.16426 86.1111 5.33811 84.9405 3.25437 82.8568C1.17063 80.773 0 77.9469 0 75V25C0 22.0532 1.17063 19.227 3.25437 17.1433C5.33811 15.0595 8.16426 13.8889 11.1111 13.8889H88.8889C91.8357 13.8889 94.6619 15.0595 96.7456 17.1433C98.8294 19.227 100 22.0532 100 25V75Z" fill="#E30917"/>
<path d="M44.4444 66.6666C40.0242 66.6666 35.7849 64.9107 32.6593 61.7851C29.5337 58.6595 27.7778 54.4202 27.7778 50C27.7778 45.5797 29.5337 41.3404 32.6593 38.2148C35.7849 35.0892 40.0242 33.3333 44.4444 33.3333C48.0833 33.3333 51.4444 34.5138 54.1861 36.4944C52.2746 34.32 49.9215 32.5782 47.2837 31.3851C44.6459 30.1919 41.784 29.5748 38.8889 29.575C33.4718 29.575 28.2766 31.7269 24.4462 35.5573C20.6158 39.3877 18.4639 44.5829 18.4639 50C18.4635 52.6824 18.9915 55.3387 20.0178 57.8171C21.0441 60.2955 22.5486 62.5475 24.4452 64.4444C26.3419 66.3413 28.5937 67.8461 31.0719 68.8727C33.5502 69.8993 36.2064 70.4277 38.8889 70.4277C44.9861 70.4277 50.4444 67.7416 54.1861 63.5055C51.3543 65.5619 47.9441 66.6685 44.4444 66.6666ZM55.3139 50.6388L62.0917 52.2L62.7028 59.125L66.2805 53.1638L73.0583 54.7222L68.4916 49.4777L72.0667 43.5138L65.6694 46.2361L61.1028 40.9888L61.7139 47.9166L55.3139 50.6388Z" fill="#EEEEEE"/>
</svg>
