<svg width="230" height="100" viewBox="0 0 230 100" fill="none" xmlns="http://www.w3.org/2000/svg">
<path d="M94.808 41V15.512H100.82L112.664 34.592H112.736V15.512H117.272V41H111.512L99.416 21.308H99.344V41H94.808ZM125.994 30.632H134.85C134.85 29.432 134.502 28.436 133.806 27.644C133.11 26.852 132.102 26.456 130.782 26.456C129.51 26.456 128.418 26.852 127.506 27.644C126.594 28.436 126.09 29.432 125.994 30.632ZM139.17 32.576C139.17 33.08 139.158 33.464 139.134 33.728H125.994C126.09 34.928 126.618 35.936 127.578 36.752C128.538 37.568 129.654 37.976 130.926 37.976C132.918 37.976 134.442 37.232 135.498 35.744L138.378 38.048C136.674 40.352 134.202 41.504 130.962 41.504C128.25 41.504 126.018 40.688 124.266 39.056C122.538 37.424 121.674 35.228 121.674 32.468C121.674 29.708 122.538 27.476 124.266 25.772C125.994 24.068 128.178 23.216 130.818 23.216C133.314 23.216 135.33 24.02 136.866 25.628C138.402 27.236 139.17 29.552 139.17 32.576ZM155.63 25.844L152.822 28.328C152.414 27.8 151.874 27.356 151.202 26.996C150.53 26.636 149.81 26.456 149.042 26.456C148.274 26.456 147.614 26.612 147.062 26.924C146.534 27.236 146.27 27.704 146.27 28.328C146.27 28.928 146.546 29.372 147.098 29.66C147.65 29.948 148.622 30.26 150.014 30.596C150.758 30.764 151.418 30.968 151.994 31.208C152.57 31.424 153.146 31.724 153.722 32.108C154.322 32.492 154.778 32.996 155.09 33.62C155.426 34.244 155.594 34.952 155.594 35.744C155.594 37.712 154.91 39.164 153.542 40.1C152.198 41.036 150.482 41.504 148.394 41.504C147.026 41.504 145.706 41.252 144.434 40.748C143.162 40.244 142.118 39.548 141.302 38.66L144.146 35.996C145.25 37.436 146.726 38.156 148.574 38.156C149.318 38.156 149.966 37.988 150.518 37.652C151.07 37.316 151.346 36.8 151.346 36.104C151.346 35.432 151.046 34.94 150.446 34.628C149.87 34.292 148.85 33.956 147.386 33.62C145.826 33.236 144.578 32.696 143.642 32C142.73 31.28 142.274 30.188 142.274 28.724C142.274 26.924 142.946 25.556 144.29 24.62C145.634 23.684 147.254 23.216 149.15 23.216C150.446 23.216 151.682 23.444 152.858 23.9C154.034 24.356 154.958 25.004 155.63 25.844ZM159.422 41V23.72H163.742V41H159.422ZM159.602 19.688C159.074 19.16 158.81 18.548 158.81 17.852C158.81 17.156 159.074 16.556 159.602 16.052C160.13 15.524 160.778 15.26 161.546 15.26C162.338 15.26 162.998 15.512 163.526 16.016C164.078 16.496 164.354 17.108 164.354 17.852C164.354 18.596 164.078 19.22 163.526 19.724C162.998 20.204 162.338 20.444 161.546 20.444C160.778 20.444 160.13 20.192 159.602 19.688ZM169.055 13.784H173.375V25.916H173.483C174.923 24.116 176.855 23.216 179.279 23.216C181.727 23.216 183.731 24.08 185.291 25.808C186.875 27.536 187.667 29.696 187.667 32.288C187.667 34.88 186.887 37.064 185.327 38.84C183.791 40.616 181.739 41.504 179.171 41.504C177.947 41.504 176.795 41.24 175.715 40.712C174.635 40.16 173.807 39.392 173.231 38.408H173.159V41H169.055V13.784ZM181.943 36.212C182.831 35.084 183.275 33.776 183.275 32.288C183.275 30.8 182.831 29.504 181.943 28.4C181.079 27.296 179.867 26.744 178.307 26.744C176.795 26.744 175.571 27.32 174.635 28.472C173.699 29.624 173.231 30.92 173.231 32.36C173.231 33.8 173.699 35.084 174.635 36.212C175.571 37.34 176.795 37.904 178.307 37.904C179.867 37.904 181.079 37.34 181.943 36.212ZM195.146 30.632H204.002C204.002 29.432 203.654 28.436 202.958 27.644C202.262 26.852 201.254 26.456 199.934 26.456C198.662 26.456 197.57 26.852 196.658 27.644C195.746 28.436 195.242 29.432 195.146 30.632ZM208.322 32.576C208.322 33.08 208.31 33.464 208.286 33.728H195.146C195.242 34.928 195.77 35.936 196.73 36.752C197.69 37.568 198.806 37.976 200.078 37.976C202.07 37.976 203.594 37.232 204.65 35.744L207.53 38.048C205.826 40.352 203.354 41.504 200.114 41.504C197.402 41.504 195.17 40.688 193.418 39.056C191.69 37.424 190.826 35.228 190.826 32.468C190.826 29.708 191.69 27.476 193.418 25.772C195.146 24.068 197.33 23.216 199.97 23.216C202.466 23.216 204.482 24.02 206.018 25.628C207.554 27.236 208.322 29.552 208.322 32.576ZM212.578 41V13.784H216.898V41H212.578ZM222.211 41V23.72H226.531V41H222.211ZM222.391 19.688C221.863 19.16 221.599 18.548 221.599 17.852C221.599 17.156 221.863 16.556 222.391 16.052C222.919 15.524 223.567 15.26 224.335 15.26C225.127 15.26 225.787 15.512 226.315 16.016C226.867 16.496 227.143 17.108 227.143 17.852C227.143 18.596 226.867 19.22 226.315 19.724C225.787 20.204 225.127 20.444 224.335 20.444C223.567 20.444 222.919 20.192 222.391 19.688ZM91.712 85L102.8 59.512H106.724L117.704 85H112.52L110.144 79.168H99.092L96.788 85H91.712ZM100.64 75.28H108.56L104.636 64.912L100.64 75.28ZM99.416 56.38C98.936 55.876 98.696 55.288 98.696 54.616C98.696 53.944 98.936 53.356 99.416 52.852C99.92 52.348 100.532 52.096 101.252 52.096C101.996 52.096 102.62 52.336 103.124 52.816C103.628 53.296 103.88 53.896 103.88 54.616C103.88 55.336 103.628 55.936 103.124 56.416C102.62 56.896 101.996 57.136 101.252 57.136C100.532 57.136 99.92 56.884 99.416 56.38ZM106.472 56.38C105.992 55.876 105.752 55.288 105.752 54.616C105.752 53.944 105.992 53.356 106.472 52.852C106.976 52.348 107.588 52.096 108.308 52.096C109.052 52.096 109.676 52.336 110.18 52.816C110.684 53.296 110.936 53.896 110.936 54.616C110.936 55.336 110.684 55.936 110.18 56.416C109.676 56.896 109.052 57.136 108.308 57.136C107.588 57.136 106.976 56.884 106.472 56.38ZM137.578 57.784V85H133.474V82.408H133.402C132.826 83.392 131.998 84.16 130.918 84.712C129.838 85.24 128.686 85.504 127.462 85.504C124.894 85.504 122.83 84.616 121.27 82.84C119.734 81.064 118.966 78.88 118.966 76.288C118.966 73.696 119.746 71.536 121.306 69.808C122.89 68.08 124.906 67.216 127.354 67.216C129.778 67.216 131.71 68.116 133.15 69.916H133.258V57.784H137.578ZM124.654 72.4C123.79 73.504 123.358 74.8 123.358 76.288C123.358 77.776 123.79 79.084 124.654 80.212C125.542 81.34 126.766 81.904 128.326 81.904C129.838 81.904 131.062 81.34 131.998 80.212C132.934 79.084 133.402 77.8 133.402 76.36C133.402 74.92 132.934 73.624 131.998 72.472C131.062 71.32 129.838 70.744 128.326 70.744C126.766 70.744 125.542 71.296 124.654 72.4ZM142.898 85V67.72H147.218V85H142.898ZM143.078 63.688C142.55 63.16 142.286 62.548 142.286 61.852C142.286 61.156 142.55 60.556 143.078 60.052C143.606 59.524 144.254 59.26 145.022 59.26C145.814 59.26 146.474 59.512 147.002 60.016C147.554 60.496 147.83 61.108 147.83 61.852C147.83 62.596 147.554 63.22 147.002 63.724C146.474 64.204 145.814 64.444 145.022 64.444C144.254 64.444 143.606 64.192 143.078 63.688ZM173.087 67.216C175.199 67.216 176.783 67.9 177.839 69.268C178.919 70.612 179.459 72.256 179.459 74.2V85H175.139V75.424C175.139 72.352 174.059 70.816 171.899 70.816C170.651 70.816 169.703 71.296 169.055 72.256C168.407 73.192 168.083 74.296 168.083 75.568V85H163.763V74.56C163.763 73.432 163.487 72.532 162.935 71.86C162.407 71.164 161.615 70.816 160.559 70.816C159.335 70.816 158.399 71.284 157.751 72.22C157.103 73.132 156.779 74.224 156.779 75.496V85H152.459V67.72H156.563V70.492H156.635C157.043 69.556 157.715 68.776 158.651 68.152C159.587 67.528 160.703 67.216 161.999 67.216C164.519 67.216 166.319 68.308 167.399 70.492C168.599 68.308 170.495 67.216 173.087 67.216Z" fill="#487EE6"/>
<g clip-path="url(#clip0)">
<path d="M13.1324 26.2648C20.3853 26.2648 26.2648 20.3853 26.2648 13.1324C26.2648 5.87959 20.3853 0 13.1324 0C5.87959 0 0 5.87959 0 13.1324C0 20.3853 5.87959 26.2648 13.1324 26.2648Z" fill="#487EE6"/>
<path d="M13.1324 100C20.3853 100 26.2648 94.1204 26.2648 86.8676C26.2648 79.6148 20.3853 73.7352 13.1324 73.7352C5.87959 73.7352 0 79.6148 0 86.8676C0 94.1204 5.87959 100 13.1324 100Z" fill="#487EE6"/>
<path d="M66.4173 26.2648C73.6701 26.2648 79.5497 20.3853 79.5497 13.1324C79.5497 5.87959 73.6701 0 66.4173 0C59.1644 0 53.2849 5.87959 53.2849 13.1324C53.2849 20.3853 59.1644 26.2648 66.4173 26.2648Z" fill="#487EE6"/>
<path d="M66.4173 100C73.6701 100 79.5497 94.1204 79.5497 86.8676C79.5497 79.6148 73.6701 73.7352 66.4173 73.7352C59.1644 73.7352 53.2849 79.6148 53.2849 86.8676C53.2849 94.1204 59.1644 100 66.4173 100Z" fill="#487EE6"/>
<path d="M19.5785 13.1324L52.9347 57.184L60.0673 67.0419L59.724 54.9804V13.1049H73.0487V86.8676H60.0055L24.9331 41.6626L19.5785 33.4798L19.7913 47.4291V86.8676H6.46667V13.1324H19.5785Z" fill="#487EE6"/>
</g>
<defs>
<clipPath id="clip0">
<rect width="79.5497" height="100" fill="white"/>
</clipPath>
</defs>
</svg>
