<svg width="350" height="235" viewBox="0 0 350 235" fill="none" xmlns="http://www.w3.org/2000/svg">
<path opacity="0.2" d="M164.647 157.225L223.267 184.355L349.782 122.122L204.227 25.4325L164.647 157.225Z" fill="#92B4D1"/>
<path d="M69.0443 95.2075L121.554 125.661V74.9088L69.0443 61.5854V95.2075Z" fill="#D1EBFF"/>
<path opacity="0.5" d="M69.0443 95.2076L121.554 125.661V122.554L69.0443 92.0902V95.2076Z" fill="#72B5E8"/>
<path d="M224.674 14.8973L121.534 74.9088V125.661L224.674 65.6288V14.8973Z" fill="#A8CFF0"/>
<path d="M69.0443 61.6164L121.554 75.1044V73.3348L69.0443 59.9395V61.6164Z" fill="#2672AB"/>
<path d="M224.674 13.3232L121.534 73.3347V75.1042L224.674 15.0723V13.3232Z" fill="#084C94"/>
<path d="M172.164 0L69.0443 59.9394L121.544 73.3348L224.674 13.3336L172.164 0Z" fill="#487EE6"/>
<g opacity="0.3">
<path opacity="0.3" d="M72.1562 58.3036L71.7351 58.5711L130.664 73.6125L131.074 73.3553L72.1562 58.3036Z" fill="#03336E"/>
<path opacity="0.3" d="M75.309 56.462L74.8982 56.7295L133.827 71.7813L134.238 71.5138L75.309 56.462Z" fill="#03336E"/>
<path opacity="0.3" d="M78.4722 54.6306L78.0614 54.8878L136.99 69.9498L137.401 69.6823L78.4722 54.6306Z" fill="#03336E"/>
<path opacity="0.3" d="M81.6353 52.7891L81.2245 53.0566L140.153 68.1083L140.564 67.8408L81.6353 52.7891Z" fill="#03336E"/>
<path opacity="0.3" d="M84.7983 50.9579L84.3875 51.2151L143.316 66.2668L143.727 66.0096L84.7983 50.9579Z" fill="#03336E"/>
<path opacity="0.3" d="M87.9615 49.1162L87.5507 49.3837L146.479 64.4354L146.89 64.1679L87.9615 49.1162Z" fill="#03336E"/>
<path opacity="0.3" d="M91.1246 47.2848L90.7138 47.542L149.642 62.604L150.053 62.3365L91.1246 47.2848Z" fill="#03336E"/>
<path opacity="0.3" d="M94.2877 45.4434L93.8769 45.7109L152.805 60.7626L153.216 60.4951L94.2877 45.4434Z" fill="#03336E"/>
<path opacity="0.3" d="M97.4509 43.6122L97.0401 43.8694L155.969 58.9211L156.379 58.6639L97.4509 43.6122Z" fill="#03336E"/>
<path opacity="0.3" d="M100.614 41.7704L100.203 42.0379L159.132 57.0896L159.543 56.8221L100.614 41.7704Z" fill="#03336E"/>
<path opacity="0.3" d="M103.777 39.939L103.366 40.1962L162.295 55.2479L162.706 54.9907L103.777 39.939Z" fill="#03336E"/>
<path opacity="0.3" d="M106.94 38.0974L106.529 38.3649L165.458 53.4166L165.869 53.1492L106.94 38.0974Z" fill="#03336E"/>
<path opacity="0.3" d="M110.103 36.2661L109.693 36.5233L168.621 51.575L169.032 51.3178L110.103 36.2661Z" fill="#03336E"/>
<path opacity="0.3" d="M113.267 34.4246L112.856 34.6921L171.784 49.7438L172.195 49.4763L113.267 34.4246Z" fill="#03336E"/>
<path opacity="0.3" d="M116.43 32.5934L116.019 32.8506L174.947 47.9023L175.358 47.6451L116.43 32.5934Z" fill="#03336E"/>
<path opacity="0.3" d="M119.593 30.7517L119.182 31.0192L178.111 46.0709L178.521 45.8034L119.593 30.7517Z" fill="#03336E"/>
<path opacity="0.3" d="M122.756 28.9204L122.345 29.1776L181.274 44.2293L181.684 43.9721L122.756 28.9204Z" fill="#03336E"/>
<path opacity="0.3" d="M125.919 27.0787L125.508 27.3462L184.426 42.398L184.848 42.1305L125.919 27.0787Z" fill="#03336E"/>
<path opacity="0.3" d="M129.082 25.2474L128.661 25.5046L187.59 40.5564L188.011 40.2992L129.082 25.2474Z" fill="#03336E"/>
<path opacity="0.3" d="M132.235 23.4059L131.834 23.6734L190.753 38.7251L191.163 38.4576L132.235 23.4059Z" fill="#03336E"/>
<path opacity="0.3" d="M135.398 21.5745L134.987 21.8317L193.916 36.8834L194.327 36.6262L135.398 21.5745Z" fill="#03336E"/>
<path opacity="0.3" d="M138.561 19.7329L138.15 20.0004L197.079 35.0521L197.49 34.7846L138.561 19.7329Z" fill="#03336E"/>
<path opacity="0.3" d="M141.724 17.9016L141.313 18.1588L200.242 33.2105L200.653 32.9533L141.724 17.9016Z" fill="#03336E"/>
<path opacity="0.3" d="M144.887 16.0601L144.477 16.3275L203.405 31.3793L203.816 31.1118L144.887 16.0601Z" fill="#03336E"/>
<path opacity="0.3" d="M148.051 14.2288L147.64 14.486L206.568 29.5377L206.979 29.2805L148.051 14.2288Z" fill="#03336E"/>
<path opacity="0.3" d="M151.214 12.3871L150.803 12.6546L209.731 27.7063L210.142 27.4388L151.214 12.3871Z" fill="#03336E"/>
<path opacity="0.3" d="M154.377 10.5559L153.966 10.8131L212.895 25.8648L213.305 25.6076L154.377 10.5559Z" fill="#03336E"/>
<path opacity="0.3" d="M157.54 8.71411L157.129 8.9816L216.058 24.0333L216.469 23.7658L157.54 8.71411Z" fill="#03336E"/>
<path opacity="0.3" d="M160.703 6.88293L160.292 7.14014L219.221 22.1919L219.632 21.9346L160.703 6.88293Z" fill="#03336E"/>
<path opacity="0.3" d="M163.866 5.04126L163.455 5.30876L222.384 20.3605L222.795 20.093L163.866 5.04126Z" fill="#03336E"/>
<path opacity="0.3" d="M167.029 3.20996L166.619 3.46717L225.547 18.5189L225.958 18.2617L167.029 3.20996Z" fill="#03336E"/>
<path opacity="0.3" d="M170.192 1.36829L169.782 1.63578L228.71 16.6875L229.121 16.42L170.192 1.36829Z" fill="#03336E"/>
</g>
<g opacity="0.3">
<path opacity="0.3" d="M72.5259 58.0361L72.1151 58.3036L131.044 73.3554L131.454 73.0879L72.5259 58.0361Z" fill="#2672AB"/>
<path opacity="0.3" d="M75.689 56.1946L75.2782 56.4621L134.207 71.5138L134.618 71.2566L75.689 56.1946Z" fill="#2672AB"/>
<path opacity="0.3" d="M78.852 54.3633L78.4413 54.6308L137.37 69.6825L137.781 69.415L78.852 54.3633Z" fill="#2672AB"/>
<path opacity="0.3" d="M82.0153 52.5214L81.6045 52.7889L140.533 67.8406L140.944 67.5731L82.0153 52.5214Z" fill="#2672AB"/>
<path opacity="0.3" d="M85.1784 50.6903L84.7676 50.9578L143.696 66.0095L144.107 65.742L85.1784 50.6903Z" fill="#2672AB"/>
<path opacity="0.3" d="M88.3414 48.8489L87.9306 49.1164L146.859 64.1681L147.27 63.9006L88.3414 48.8489Z" fill="#2672AB"/>
<path opacity="0.3" d="M91.5046 47.0173L91.0938 47.2848L150.022 62.3366L150.433 62.0691L91.5046 47.0173Z" fill="#2672AB"/>
<path opacity="0.3" d="M94.6678 45.1757L94.257 45.4432L153.185 60.4949L153.596 60.2274L94.6678 45.1757Z" fill="#2672AB"/>
<path opacity="0.3" d="M97.8309 43.3445L97.4202 43.612L156.349 58.6637L156.759 58.3962L97.8309 43.3445Z" fill="#2672AB"/>
<path opacity="0.3" d="M100.994 41.5029L100.583 41.7704L159.512 56.8221L159.922 56.5546L100.994 41.5029Z" fill="#2672AB"/>
<path opacity="0.3" d="M104.157 39.6716L103.746 39.9391L162.675 54.9909L163.086 54.7234L104.157 39.6716Z" fill="#2672AB"/>
<path opacity="0.3" d="M107.32 37.83L106.909 38.0975L165.838 53.1492L166.249 52.8817L107.32 37.83Z" fill="#2672AB"/>
<path opacity="0.3" d="M110.483 35.9985L110.073 36.266L169.001 51.3178L169.412 51.0503L110.483 35.9985Z" fill="#2672AB"/>
<path opacity="0.3" d="M113.646 34.1569L113.236 34.4244L172.164 49.4761L172.575 49.2086L113.646 34.1569Z" fill="#2672AB"/>
<path opacity="0.3" d="M116.81 32.3257L116.389 32.5932L175.317 47.6449L175.738 47.3774L116.81 32.3257Z" fill="#2672AB"/>
<path opacity="0.3" d="M119.973 30.4843L119.552 30.7518L178.49 45.8035L178.901 45.536L119.973 30.4843Z" fill="#2672AB"/>
<path opacity="0.3" d="M123.126 28.653L122.725 28.9205L181.643 43.9722L182.054 43.7047L123.126 28.653Z" fill="#2672AB"/>
<path opacity="0.3" d="M126.289 26.8112L125.878 27.0787L184.806 42.1304L185.217 41.8629L126.289 26.8112Z" fill="#2672AB"/>
<path opacity="0.3" d="M129.452 24.98L129.041 25.2475L187.97 40.2992L188.38 40.0317L129.452 24.98Z" fill="#2672AB"/>
<path opacity="0.3" d="M132.615 23.1385L132.204 23.406L191.133 38.4577L191.543 38.1902L132.615 23.1385Z" fill="#2672AB"/>
<path opacity="0.3" d="M135.778 21.307L135.367 21.5642L194.296 36.6262L194.707 36.3587L135.778 21.307Z" fill="#2672AB"/>
<path opacity="0.3" d="M138.941 19.4655L138.53 19.733L197.459 34.7847L197.87 34.5172L138.941 19.4655Z" fill="#2672AB"/>
<path opacity="0.3" d="M142.104 17.6343L141.693 17.9018L200.622 32.9535L201.033 32.686L142.104 17.6343Z" fill="#2672AB"/>
<path opacity="0.3" d="M145.267 15.7926L144.857 16.0601L203.785 31.1118L204.196 30.8443L145.267 15.7926Z" fill="#2672AB"/>
<path opacity="0.3" d="M148.431 13.9612L148.02 14.2184L206.948 29.2804L207.359 29.0129L148.431 13.9612Z" fill="#2672AB"/>
<path opacity="0.3" d="M151.594 12.1195L151.183 12.387L210.111 27.4387L210.522 27.1712L151.594 12.1195Z" fill="#2672AB"/>
<path opacity="0.3" d="M154.757 10.2882L154.346 10.5557L213.274 25.6074L213.685 25.3399L154.757 10.2882Z" fill="#2672AB"/>
<path opacity="0.3" d="M157.92 8.44666L157.509 8.71415L216.438 23.7659L216.848 23.4984L157.92 8.44666Z" fill="#2672AB"/>
<path opacity="0.3" d="M161.083 6.61536L160.672 6.88285L219.601 21.9346L220.012 21.6671L161.083 6.61536Z" fill="#2672AB"/>
<path opacity="0.3" d="M164.246 4.7738L163.835 5.0413L222.764 20.093L223.175 19.8255L164.246 4.7738Z" fill="#2672AB"/>
<path opacity="0.3" d="M167.409 2.9425L166.999 3.21L225.927 18.2515L226.338 17.9943L167.409 2.9425Z" fill="#2672AB"/>
<path opacity="0.3" d="M170.572 1.10083L170.162 1.36832L229.09 16.4201L229.501 16.1526L170.572 1.10083Z" fill="#2672AB"/>
</g>
<path opacity="0.2" d="M74.5491 95.0431L76.3463 99.3539L92.3879 108.624L90.5804 104.323L74.5491 95.0431Z" fill="#2672AB"/>
<path d="M73.6555 75.0631V94.7034L89.4712 103.85V84.2094L73.6555 75.0631Z" fill="#487EE6"/>
<path d="M73.6555 92.5326V92.8515L89.4712 101.998V101.689L73.6555 92.5326Z" fill="#72B5E8"/>
<path d="M73.6555 90.1251V90.4338L89.4712 99.58V99.2714L73.6555 90.1251Z" fill="#72B5E8"/>
<path d="M73.6555 87.7075V88.0162L89.4712 97.1624V96.8538L73.6555 87.7075Z" fill="#72B5E8"/>
<path d="M73.6555 85.2897V85.5983L89.4712 94.7549V94.4359L73.6555 85.2897Z" fill="#72B5E8"/>
<path d="M73.6555 82.8822V83.1908L89.4712 92.3371V92.0284L73.6555 82.8822Z" fill="#72B5E8"/>
<path d="M73.6555 80.4645V80.7731L89.4712 89.9193V89.6107L73.6555 80.4645Z" fill="#72B5E8"/>
<path d="M73.6555 78.0468V78.3554L89.4712 87.5017V87.193L73.6555 78.0468Z" fill="#72B5E8"/>
<path d="M73.6555 92.2549V92.5635L89.4712 101.71V101.401L73.6555 92.2549Z" fill="#2672AB"/>
<path d="M73.6555 89.8372V90.1458L89.4712 99.2921V98.9834L73.6555 89.8372Z" fill="#2672AB"/>
<path d="M73.6555 87.4193V87.7382L89.4712 96.8845V96.5656L73.6555 87.4193Z" fill="#2672AB"/>
<path d="M73.6555 85.0118V85.3205L89.4712 94.4667V94.1581L73.6555 85.0118Z" fill="#2672AB"/>
<path d="M73.6555 82.5941V82.9028L89.4712 92.0491V91.7405L73.6555 82.5941Z" fill="#2672AB"/>
<path d="M73.6555 80.1764V80.485L89.4712 89.6313V89.3226L73.6555 80.1764Z" fill="#2672AB"/>
<path d="M73.6555 77.7585V78.0672L89.4712 87.2237V86.9151L73.6555 77.7585Z" fill="#2672AB"/>
<path d="M90.6521 104.57L89.4095 105.29V83.8802L90.6521 83.16V104.57Z" fill="#03336E"/>
<path d="M75.843 95.9997L74.6003 96.7199V75.31L75.843 74.5898V95.9997Z" fill="#03336E"/>
<path d="M74.6313 73.8903L73.3887 74.6104L89.4095 83.8801L90.6522 83.16L74.6313 73.8903Z" fill="#2672AB"/>
<path d="M89.4095 84.0241V83.8801L73.3782 74.6104V96.0202L74.6004 96.7301V78.6948L88.1874 86.555V104.58L89.4095 105.29V84.0241Z" fill="#084C94"/>
<path opacity="0.2" d="M97.7795 108.613L99.587 112.924L115.629 122.204L113.821 117.893L97.7795 108.613Z" fill="#2672AB"/>
<path d="M96.8963 88.6333V108.274L112.712 117.42V97.7796L96.8963 88.6333Z" fill="#487EE6"/>
<path d="M96.8963 106.113V106.422L112.712 115.568V115.26L96.8963 106.113Z" fill="#72B5E8"/>
<path d="M96.8963 103.695V104.004L112.712 113.15V112.842L96.8963 103.695Z" fill="#72B5E8"/>
<path d="M96.8963 101.278V101.586L112.712 110.743V110.434L96.8963 101.278Z" fill="#72B5E8"/>
<path d="M96.8963 98.8702V99.1789L112.712 108.325V108.017L96.8963 98.8702Z" fill="#72B5E8"/>
<path d="M96.8963 96.4525V96.7612L112.712 105.907V105.599L96.8963 96.4525Z" fill="#72B5E8"/>
<path d="M96.8963 94.0345V94.3432L112.712 103.489V103.181L96.8963 94.0345Z" fill="#72B5E8"/>
<path d="M96.8963 91.6171V91.9257L112.712 101.082V100.763L96.8963 91.6171Z" fill="#72B5E8"/>
<path d="M96.8963 105.825V106.134L112.712 115.28V114.971L96.8963 105.825Z" fill="#2672AB"/>
<path d="M96.8963 103.407V103.726L112.712 112.873V112.564L96.8963 103.407Z" fill="#2672AB"/>
<path d="M96.8963 101V101.309L112.712 110.455V110.146L96.8963 101Z" fill="#2672AB"/>
<path d="M96.8963 98.582V98.8907L112.712 108.037V107.728L96.8963 98.582Z" fill="#2672AB"/>
<path d="M96.8963 96.1643V96.473L112.712 105.619V105.311L96.8963 96.1643Z" fill="#2672AB"/>
<path d="M96.8963 93.7466V94.0655L112.712 103.212V102.903L96.8963 93.7466Z" fill="#2672AB"/>
<path d="M96.8963 91.3392V91.6479L112.712 100.794V100.485L96.8963 91.3392Z" fill="#2672AB"/>
<path d="M113.883 118.14L112.65 118.871V97.4607L113.883 96.7302V118.14Z" fill="#03336E"/>
<path d="M99.0735 109.57L97.8411 110.29V88.8802L99.0735 88.16V109.57Z" fill="#03336E"/>
<path d="M97.8616 87.4604L96.6292 88.1806L112.65 97.4606L113.883 96.7301L97.8616 87.4604Z" fill="#2672AB"/>
<path d="M112.65 97.5944V97.4607L96.6088 88.1807V109.591L97.8412 110.3V92.2651L111.428 100.125V118.161L112.65 118.871V97.5944Z" fill="#084C94"/>
<path d="M120.527 131.618L164.667 157.225V92.6871L120.527 67.2545V131.618Z" fill="#A8CFF0"/>
<path d="M274.483 28.5602L164.647 92.687V157.225L274.483 93.0779V28.5602Z" fill="#72B5E8"/>
<path d="M230.343 3.19971L120.527 67.2544L164.667 92.687L274.483 28.5706L230.343 3.19971Z" fill="#D1EBFF"/>
<path d="M170.788 153.902L223.288 184.356V145.507L170.788 103.089V153.902Z" fill="#D1EBFF"/>
<path opacity="0.5" d="M170.788 153.902L223.288 184.355V181.176L170.788 150.713V153.902Z" fill="#72B5E8"/>
<path d="M326.407 85.485L223.267 145.507V184.355L326.407 124.323V85.485Z" fill="#A8CFF0"/>
<path opacity="0.5" d="M326.407 121.144L223.267 181.156V184.355L326.407 124.323V121.144Z" fill="#487EE6"/>
<path d="M170.788 104.765L223.288 147.277V145.507L170.788 103.089V104.765Z" fill="#2672AB"/>
<path d="M326.407 85.485L223.267 145.507V147.276L326.407 87.2443V85.485Z" fill="#03336E"/>
<path d="M273.898 43.1489L170.788 103.088L223.288 145.507L326.408 85.4954L273.898 43.1489Z" fill="#084C94"/>
<path d="M122.592 99.3125V133.14L159.861 154.478V120.661L122.592 99.3125Z" fill="#487EE6"/>
<path opacity="0.5" d="M122.592 109.889V111.051L159.861 132.4V131.237L122.592 109.889Z" fill="#2672AB"/>
<path d="M127.408 102.06L126.854 101.771V135.589L127.408 135.877V102.06Z" fill="#72B5E8"/>
<path d="M132.183 104.796L131.629 104.508V138.336L132.183 138.624V104.796Z" fill="#72B5E8"/>
<path d="M136.959 107.543L136.415 107.245V141.073L136.959 141.361V107.543Z" fill="#72B5E8"/>
<path d="M141.735 110.28L141.19 109.992V143.809L141.735 144.097V110.28Z" fill="#72B5E8"/>
<path d="M146.51 113.017L145.966 112.729V146.556L146.51 146.844V113.017Z" fill="#72B5E8"/>
<path d="M151.296 115.753L150.741 115.465V149.293L151.296 149.581V115.753Z" fill="#72B5E8"/>
<path d="M156.071 118.5L155.517 118.212V152.03L156.071 152.318V118.5Z" fill="#72B5E8"/>
<path d="M122.592 109.107V110.27L159.861 131.618V130.455L122.592 109.107Z" fill="#72B5E8"/>
<path d="M160.929 155.137L159.81 155.785V120.362L160.929 119.714V155.137Z" fill="#03336E"/>
<path d="M124.563 134.313L123.444 134.961V99.5389L124.563 98.8907V134.313Z" fill="#03336E"/>
<path d="M123.475 98.2529L122.355 98.9011L159.81 120.362L160.929 119.714L123.475 98.2529Z" fill="#2672AB"/>
<path d="M159.81 120.486V120.362L122.345 98.9011V134.324L123.444 134.962V101.103L158.7 121.278V155.147L159.81 155.785V120.486Z" fill="#084C94"/>
<path d="M122.592 76.6682V88.6952L159.861 110.033V98.0061L122.592 76.6682Z" fill="#487EE6"/>
<path d="M127.408 79.4048L126.854 79.1167V91.1436L127.408 91.442V79.4048Z" fill="#72B5E8"/>
<path d="M132.183 82.1516L131.629 81.8635V93.8905L132.183 94.1786V82.1516Z" fill="#72B5E8"/>
<path d="M136.959 84.8885L136.415 84.6005V96.6274L136.959 96.9155V84.8885Z" fill="#72B5E8"/>
<path d="M141.735 87.625L141.19 87.3369V99.3639L141.735 99.652V87.625Z" fill="#72B5E8"/>
<path d="M146.51 90.3721L145.966 90.084V102.111L146.51 102.399V90.3721Z" fill="#72B5E8"/>
<path d="M151.296 93.1087L150.741 92.8207V104.848L151.296 105.136V93.1087Z" fill="#72B5E8"/>
<path d="M156.071 95.8453L155.517 95.5573V107.584L156.071 107.872V95.8453Z" fill="#72B5E8"/>
<path d="M160.929 110.691L159.81 111.339V97.7076L160.929 97.0594V110.691Z" fill="#03336E"/>
<path d="M124.563 89.868L123.444 90.5162V76.8842L124.563 76.2361V89.868Z" fill="#03336E"/>
<path d="M123.475 75.5983L122.355 76.2567L159.81 97.7077L160.929 97.0596L123.475 75.5983Z" fill="#2672AB"/>
<path d="M124.481 88.623L123.362 89.2815L158.68 109.58L159.799 108.922L124.481 88.623Z" fill="#2672AB"/>
<path d="M122.345 76.2567V89.8783L159.81 111.34V97.7077L122.345 76.2567ZM123.444 89.2611V78.4481L158.7 98.6131V109.436L123.444 89.2611Z" fill="#084C94"/>
<path opacity="0.2" d="M176.354 153.81L178.162 158.12L194.193 167.39L192.386 163.09L176.354 153.81Z" fill="#2672AB"/>
<path d="M175.461 133.83V153.47L191.276 162.616V142.976L175.461 133.83Z" fill="#487EE6"/>
<path d="M175.461 151.309V151.618L191.276 160.764V160.456L175.461 151.309Z" fill="#72B5E8"/>
<path d="M175.461 148.892V149.2L191.276 158.346V158.038L175.461 148.892Z" fill="#72B5E8"/>
<path d="M175.461 146.474V146.783L191.276 155.939V155.62L175.461 146.474Z" fill="#72B5E8"/>
<path d="M175.461 144.056V144.375L191.276 153.521V153.213L175.461 144.056Z" fill="#72B5E8"/>
<path d="M175.461 141.649V141.957L191.276 151.104V150.795L175.461 141.649Z" fill="#72B5E8"/>
<path d="M175.461 139.231V139.54L191.276 148.686V148.377L175.461 139.231Z" fill="#72B5E8"/>
<path d="M175.461 136.813V137.122L191.276 146.268V145.96L175.461 136.813Z" fill="#72B5E8"/>
<path d="M175.461 151.021V151.33L191.276 160.476V160.168L175.461 151.021Z" fill="#2672AB"/>
<path d="M175.461 148.604V148.912L191.276 158.069V157.75L175.461 148.604Z" fill="#2672AB"/>
<path d="M175.461 146.196V146.505L191.276 155.651V155.342L175.461 146.196Z" fill="#2672AB"/>
<path d="M175.461 143.778V144.087L191.276 153.233V152.925L175.461 143.778Z" fill="#2672AB"/>
<path d="M175.461 141.361V141.669L191.276 150.816V150.507L175.461 141.361Z" fill="#2672AB"/>
<path d="M175.461 138.943V139.252L191.276 148.408V148.089L175.461 138.943Z" fill="#2672AB"/>
<path d="M175.461 136.525V136.844L191.276 145.99V145.682L175.461 136.525Z" fill="#2672AB"/>
<path d="M192.458 163.336L191.225 164.057V142.647L192.458 141.927V163.336Z" fill="#03336E"/>
<path d="M177.648 154.766L176.406 155.486V134.077L177.648 133.356V154.766Z" fill="#03336E"/>
<path d="M176.436 132.657L175.194 133.377L191.225 142.647L192.458 141.927L176.436 132.657Z" fill="#2672AB"/>
<path d="M191.225 142.791V142.647L175.184 133.377V154.787L176.416 155.497V137.462L189.993 145.322V163.347L191.225 164.057V142.791Z" fill="#084C94"/>
<path opacity="0.2" d="M199.595 167.39L201.403 171.69L217.434 180.97L215.626 176.66L199.595 167.39Z" fill="#2672AB"/>
<path d="M198.702 147.4V167.04L214.517 176.197V156.556L198.702 147.4Z" fill="#487EE6"/>
<path d="M198.702 164.88V165.188L214.517 174.335V174.026L198.702 164.88Z" fill="#72B5E8"/>
<path d="M198.702 162.462V162.77L214.517 171.917V171.608L198.702 162.462Z" fill="#72B5E8"/>
<path d="M198.702 160.054V160.363L214.517 169.509V169.201L198.702 160.054Z" fill="#72B5E8"/>
<path d="M198.702 157.637V157.945L214.517 167.092V166.783L198.702 157.637Z" fill="#72B5E8"/>
<path d="M198.702 155.219V155.528L214.517 164.674V164.365L198.702 155.219Z" fill="#72B5E8"/>
<path d="M198.702 152.801V153.11L214.517 162.266V161.948L198.702 152.801Z" fill="#72B5E8"/>
<path d="M198.702 150.383V150.702L214.517 159.849V159.54L198.702 150.383Z" fill="#72B5E8"/>
<path d="M198.702 164.592V164.911L214.517 174.057V173.748L198.702 164.592Z" fill="#2672AB"/>
<path d="M198.702 162.184V162.493L214.517 171.639V171.33L198.702 162.184Z" fill="#2672AB"/>
<path d="M198.702 159.766V160.075L214.517 169.221V168.913L198.702 159.766Z" fill="#2672AB"/>
<path d="M198.702 157.349V157.657L214.517 166.803V166.495L198.702 157.349Z" fill="#2672AB"/>
<path d="M198.702 154.931V155.24L214.517 164.396V164.077L198.702 154.931Z" fill="#2672AB"/>
<path d="M198.702 152.524V152.832L214.517 161.978V161.67L198.702 152.524Z" fill="#2672AB"/>
<path d="M198.702 150.106V150.414L214.517 159.561V159.252L198.702 150.106Z" fill="#2672AB"/>
<path d="M215.698 176.917L214.456 177.637V156.227L215.698 155.507V176.917Z" fill="#03336E"/>
<path d="M200.889 168.347L199.646 169.067V147.657L200.889 146.937V168.347Z" fill="#03336E"/>
<path d="M199.677 146.227L198.435 146.958L214.456 156.227L215.698 155.507L199.677 146.227Z" fill="#2672AB"/>
<path d="M214.456 156.371V156.227L198.424 146.947V168.357L199.646 169.067V151.042L213.233 158.892V176.927L214.456 177.637V156.371Z" fill="#084C94"/>
<g opacity="0.3">
<path opacity="0.3" d="M225.773 145.867L225.331 146.134V179.54L225.773 179.263V145.867Z" fill="#2672AB"/>
<path opacity="0.3" d="M228.936 144.025L228.495 144.303V177.699L228.936 177.431V144.025Z" fill="#2672AB"/>
<path opacity="0.3" d="M232.089 142.194L231.658 142.461V175.867L232.089 175.59V142.194Z" fill="#2672AB"/>
<path opacity="0.3" d="M235.252 140.352L234.821 140.63V174.026L235.252 173.758V140.352Z" fill="#2672AB"/>
<path opacity="0.3" d="M238.415 138.521L237.974 138.789V172.194L238.415 171.917V138.521Z" fill="#2672AB"/>
<path opacity="0.3" d="M241.578 136.68L241.147 136.957V170.353L241.578 170.086V136.68Z" fill="#2672AB"/>
<path opacity="0.3" d="M244.741 134.848L244.3 135.116V168.522L244.741 168.244V134.848Z" fill="#2672AB"/>
<path opacity="0.3" d="M247.905 133.007L247.463 133.284V166.68L247.905 166.413V133.007Z" fill="#2672AB"/>
<path opacity="0.3" d="M251.068 131.175L250.626 131.443V164.849L251.068 164.571V131.175Z" fill="#2672AB"/>
<path opacity="0.3" d="M254.231 129.334L253.789 129.611V163.007L254.231 162.74V129.334Z" fill="#2672AB"/>
<path opacity="0.3" d="M257.394 127.502L256.952 127.77V161.176L257.394 160.898V127.502Z" fill="#2672AB"/>
<path opacity="0.3" d="M260.557 125.661L260.116 125.938V159.334L260.557 159.067V125.661Z" fill="#2672AB"/>
<path opacity="0.3" d="M263.72 123.829L263.279 124.097V157.503L263.72 157.225V123.829Z" fill="#2672AB"/>
<path opacity="0.3" d="M266.883 121.988L266.442 122.266V155.661L266.883 155.394V121.988Z" fill="#2672AB"/>
<path opacity="0.3" d="M270.046 120.156L269.605 120.424V153.83L270.046 153.552V120.156Z" fill="#2672AB"/>
<path opacity="0.3" d="M273.209 118.315L272.768 118.582V151.988L273.209 151.721V118.315Z" fill="#2672AB"/>
<path opacity="0.3" d="M276.373 116.484L275.931 116.751V150.157L276.373 149.879V116.484Z" fill="#2672AB"/>
<path opacity="0.3" d="M279.536 114.642L279.094 114.909V148.315L279.536 148.048V114.642Z" fill="#2672AB"/>
<path opacity="0.3" d="M282.699 112.811L282.257 113.078V146.484L282.699 146.206V112.811Z" fill="#2672AB"/>
<path opacity="0.3" d="M285.862 110.969L285.42 111.247V144.643L285.862 144.375V110.969Z" fill="#2672AB"/>
<path opacity="0.3" d="M289.025 109.138L288.583 109.405V142.811L289.025 142.533V109.138Z" fill="#2672AB"/>
<path opacity="0.3" d="M292.188 107.296L291.747 107.574V140.97L292.188 140.702V107.296Z" fill="#2672AB"/>
<path opacity="0.3" d="M295.341 105.465L294.91 105.732V139.138L295.341 138.861V105.465Z" fill="#2672AB"/>
<path opacity="0.3" d="M298.514 103.623L298.073 103.891V137.297L298.514 137.029V103.623Z" fill="#2672AB"/>
<path opacity="0.3" d="M301.667 101.792L301.236 102.059V135.465L301.667 135.188V101.792Z" fill="#2672AB"/>
<path opacity="0.3" d="M304.83 99.9502L304.399 100.218V133.624L304.83 133.356V99.9502Z" fill="#2672AB"/>
<path opacity="0.3" d="M307.994 98.119L307.552 98.3865V131.793L307.994 131.515V98.119Z" fill="#2672AB"/>
<path opacity="0.3" d="M311.157 96.2775L310.715 96.5553V129.951L311.157 129.683V96.2775Z" fill="#2672AB"/>
<path opacity="0.3" d="M314.32 94.4462L313.878 94.7137V128.12L314.32 127.842V94.4462Z" fill="#2672AB"/>
<path opacity="0.3" d="M317.483 92.6045L317.041 92.8823V126.278L317.483 126.01V92.6045Z" fill="#2672AB"/>
<path opacity="0.3" d="M320.646 90.7732L320.204 91.0407V124.436L320.646 124.169V90.7732Z" fill="#2672AB"/>
<path opacity="0.3" d="M323.809 88.9315L323.368 89.199V122.605L323.809 122.338V88.9315Z" fill="#2672AB"/>
</g>
<g opacity="0.3">
<path opacity="0.3" d="M226.225 145.61L225.783 145.877V179.283L226.225 179.016V145.61Z" fill="#F0F8FF"/>
<path opacity="0.3" d="M229.388 143.778L228.946 144.046V177.442L229.388 177.174V143.778Z" fill="#F0F8FF"/>
<path opacity="0.3" d="M232.551 141.937L232.11 142.205V175.61L232.551 175.333V141.937Z" fill="#F0F8FF"/>
<path opacity="0.3" d="M235.714 140.095L235.273 140.373V173.769L235.714 173.501V140.095Z" fill="#F0F8FF"/>
<path opacity="0.3" d="M238.877 138.264L238.436 138.531V171.937L238.877 171.66V138.264Z" fill="#F0F8FF"/>
<path opacity="0.3" d="M242.04 136.422L241.599 136.7V170.096L242.04 169.828V136.422Z" fill="#F0F8FF"/>
<path opacity="0.3" d="M245.193 134.591L244.762 134.859V168.265L245.193 167.997V134.591Z" fill="#F0F8FF"/>
<path opacity="0.3" d="M248.356 132.75L247.925 133.027V166.423L248.356 166.156V132.75Z" fill="#F0F8FF"/>
<path opacity="0.3" d="M251.52 130.918L251.088 131.186V164.592L251.52 164.324V130.918Z" fill="#F0F8FF"/>
<path opacity="0.3" d="M254.683 129.077L254.251 129.354V162.75L254.683 162.483V129.077Z" fill="#F0F8FF"/>
<path opacity="0.3" d="M257.846 127.245L257.414 127.513V160.919L257.846 160.641V127.245Z" fill="#F0F8FF"/>
<path opacity="0.3" d="M261.009 125.404L260.567 125.681V159.077L261.009 158.81V125.404Z" fill="#F0F8FF"/>
<path opacity="0.3" d="M264.172 123.572L263.73 123.84V157.246L264.172 156.968V123.572Z" fill="#F0F8FF"/>
<path opacity="0.3" d="M267.335 121.731L266.894 122.009V155.404L267.335 155.137V121.731Z" fill="#F0F8FF"/>
<path opacity="0.3" d="M270.498 119.9L270.057 120.167V153.573L270.498 153.306V119.9Z" fill="#F0F8FF"/>
<path opacity="0.3" d="M273.661 118.058L273.22 118.336V151.731L273.661 151.464V118.058Z" fill="#F0F8FF"/>
<path opacity="0.3" d="M276.824 116.227L276.383 116.494V149.9L276.824 149.622V116.227Z" fill="#F0F8FF"/>
<path opacity="0.3" d="M279.988 114.385L279.546 114.663V148.059L279.988 147.791V114.385Z" fill="#F0F8FF"/>
<path opacity="0.3" d="M283.151 112.554L282.709 112.821V146.227L283.151 145.949V112.554Z" fill="#F0F8FF"/>
<path opacity="0.3" d="M286.314 110.712L285.872 110.99V144.385L286.314 144.118V110.712Z" fill="#F0F8FF"/>
<path opacity="0.3" d="M289.477 108.881L289.035 109.148V142.554L289.477 142.277V108.881Z" fill="#F0F8FF"/>
<path opacity="0.3" d="M292.64 107.039L292.199 107.317V140.713L292.64 140.445V107.039Z" fill="#F0F8FF"/>
<path opacity="0.3" d="M295.803 105.208L295.362 105.475V138.881L295.803 138.604V105.208Z" fill="#F0F8FF"/>
<path opacity="0.3" d="M298.966 103.366L298.525 103.644V137.04L298.966 136.772V103.366Z" fill="#F0F8FF"/>
<path opacity="0.3" d="M302.13 101.535L301.688 101.803V135.209L302.13 134.931V101.535Z" fill="#F0F8FF"/>
<path opacity="0.3" d="M305.293 99.6934L304.851 99.9711V133.367L305.293 133.099V99.6934Z" fill="#F0F8FF"/>
<path opacity="0.3" d="M308.446 97.8622L308.014 98.1297V131.536L308.446 131.258V97.8622Z" fill="#F0F8FF"/>
<path opacity="0.3" d="M311.619 96.0205L311.177 96.2983V129.694L311.619 129.426V96.0205Z" fill="#F0F8FF"/>
<path opacity="0.3" d="M314.772 94.1891L314.34 94.4566V127.863L314.772 127.585V94.1891Z" fill="#F0F8FF"/>
<path opacity="0.3" d="M317.935 92.3474L317.504 92.6252V126.021L317.935 125.753V92.3474Z" fill="#F0F8FF"/>
<path opacity="0.3" d="M321.098 90.5164L320.656 90.7838V124.19L321.098 123.912V90.5164Z" fill="#F0F8FF"/>
<path opacity="0.3" d="M324.261 88.6746L323.83 88.9523V122.348L324.261 122.08V88.6746Z" fill="#F0F8FF"/>
</g>
<g opacity="0.3">
<path opacity="0.3" d="M173.088 101.751L172.678 102.018L225.023 144.293L225.434 144.025L173.088 101.751Z" fill="#03336E"/>
<path opacity="0.3" d="M176.252 99.9091L175.841 100.177L228.186 142.451L228.597 142.194L176.252 99.9091Z" fill="#03336E"/>
<path opacity="0.3" d="M179.415 98.0779L179.004 98.3454L231.349 140.62L231.76 140.352L179.415 98.0779Z" fill="#03336E"/>
<path opacity="0.3" d="M182.578 96.2365L182.167 96.5039L234.513 138.778L234.923 138.521L182.578 96.2365Z" fill="#03336E"/>
<path opacity="0.3" d="M185.741 94.4049L185.33 94.6724L237.676 136.947L238.087 136.679L185.741 94.4049Z" fill="#03336E"/>
<path opacity="0.3" d="M188.904 92.5739L188.493 92.8311L240.839 135.106L241.25 134.848L188.904 92.5739Z" fill="#03336E"/>
<path opacity="0.3" d="M192.067 90.7322L191.656 90.9997L244.002 133.274L244.413 133.007L192.067 90.7322Z" fill="#03336E"/>
<path opacity="0.3" d="M195.23 88.9009L194.819 89.1581L247.165 131.433L247.576 131.175L195.23 88.9009Z" fill="#03336E"/>
<path opacity="0.3" d="M198.394 87.0592L197.983 87.3267L250.328 129.601L250.739 129.334L198.394 87.0592Z" fill="#03336E"/>
<path opacity="0.3" d="M201.557 85.2278L201.146 85.485L253.491 127.759L253.902 127.492L201.557 85.2278Z" fill="#03336E"/>
<path opacity="0.3" d="M204.72 83.3864L204.309 83.6539L256.655 125.928L257.065 125.661L204.72 83.3864Z" fill="#03336E"/>
<path opacity="0.3" d="M207.883 81.5447L207.472 81.8122L259.818 124.087L260.229 123.819L207.883 81.5447Z" fill="#03336E"/>
<path opacity="0.3" d="M211.036 79.7133L210.625 79.9807L262.981 122.255L263.392 121.988L211.036 79.7133Z" fill="#03336E"/>
<path opacity="0.3" d="M214.209 77.8717L213.788 78.1392L266.144 120.414L266.555 120.156L214.209 77.8717Z" fill="#03336E"/>
<path opacity="0.3" d="M217.362 76.0404L216.951 76.3079L269.307 118.582L269.718 118.315L217.362 76.0404Z" fill="#03336E"/>
<path opacity="0.3" d="M220.525 74.209L220.114 74.4662L272.47 116.741L272.881 116.483L220.525 74.209Z" fill="#03336E"/>
<path opacity="0.3" d="M223.688 72.3676L223.277 72.6351L275.623 114.91L276.044 114.642L223.688 72.3676Z" fill="#03336E"/>
<path opacity="0.3" d="M226.851 70.526L226.441 70.7935L278.786 113.068L279.197 112.8L226.851 70.526Z" fill="#03336E"/>
<path opacity="0.3" d="M230.014 68.6947L229.603 68.9622L281.949 111.237L282.37 110.969L230.014 68.6947Z" fill="#03336E"/>
<path opacity="0.3" d="M233.177 66.853L232.767 67.1205L285.112 109.395L285.523 109.127L233.177 66.853Z" fill="#03336E"/>
<path opacity="0.3" d="M236.341 65.0216L235.93 65.2891L288.275 107.564L288.686 107.296L236.341 65.0216Z" fill="#03336E"/>
<path opacity="0.3" d="M239.504 63.1801L239.093 63.4476L291.438 105.722L291.849 105.465L239.504 63.1801Z" fill="#03336E"/>
<path opacity="0.3" d="M242.667 61.3488L242.256 61.6163L294.602 103.891L295.013 103.623L242.667 61.3488Z" fill="#03336E"/>
<path opacity="0.3" d="M245.83 59.5072L245.419 59.7747L297.765 102.049L298.176 101.782L245.83 59.5072Z" fill="#03336E"/>
<path opacity="0.3" d="M248.993 57.6758L248.582 57.9433L300.928 100.218L301.339 99.9503L248.993 57.6758Z" fill="#03336E"/>
<path opacity="0.3" d="M252.156 55.8342L251.746 56.1017L304.091 98.3762L304.502 98.1087L252.156 55.8342Z" fill="#03336E"/>
<path opacity="0.3" d="M255.32 54.0031L254.909 54.2705L307.254 96.545L307.665 96.2775L255.32 54.0031Z" fill="#03336E"/>
<path opacity="0.3" d="M258.482 52.1614L258.072 52.4289L310.417 94.7033L310.828 94.4358L258.482 52.1614Z" fill="#03336E"/>
<path opacity="0.3" d="M261.646 50.3302L261.235 50.5977L313.58 92.8722L313.991 92.6047L261.646 50.3302Z" fill="#03336E"/>
<path opacity="0.3" d="M264.809 48.4884L264.398 48.7559L316.743 91.0304L317.154 90.7629L264.809 48.4884Z" fill="#03336E"/>
<path opacity="0.3" d="M267.972 46.6573L267.561 46.9248L319.907 89.1993L320.317 88.9318L267.972 46.6573Z" fill="#03336E"/>
<path opacity="0.3" d="M271.135 44.8157L270.714 45.0832L323.07 87.3576L323.48 87.0901L271.135 44.8157Z" fill="#03336E"/>
</g>
<g opacity="0.3">
<path opacity="0.3" d="M173.469 101.483L173.058 101.751L225.403 144.025L225.814 143.758L173.469 101.483Z" fill="#2672AB"/>
<path opacity="0.3" d="M176.632 99.652L176.221 99.9092L228.567 142.184L228.977 141.926L176.632 99.652Z" fill="#2672AB"/>
<path opacity="0.3" d="M179.795 97.8104L179.384 98.0779L231.73 140.352L232.14 140.085L179.795 97.8104Z" fill="#2672AB"/>
<path opacity="0.3" d="M182.958 95.979L182.547 96.2362L234.893 138.511L235.303 138.253L182.958 95.979Z" fill="#2672AB"/>
<path opacity="0.3" d="M186.121 94.1373L185.71 94.4048L238.056 136.679L238.467 136.412L186.121 94.1373Z" fill="#2672AB"/>
<path opacity="0.3" d="M189.284 92.3064L188.873 92.5739L241.219 134.848L241.63 134.581L189.284 92.3064Z" fill="#2672AB"/>
<path opacity="0.3" d="M192.447 90.4646L192.037 90.7321L244.382 133.007L244.793 132.739L192.447 90.4646Z" fill="#2672AB"/>
<path opacity="0.3" d="M195.61 88.6332L195.2 88.9007L247.545 131.175L247.956 130.908L195.61 88.6332Z" fill="#2672AB"/>
<path opacity="0.3" d="M198.774 86.7916L198.352 87.0591L250.708 129.334L251.119 129.066L198.774 86.7916Z" fill="#2672AB"/>
<path opacity="0.3" d="M201.937 84.9603L201.516 85.2175L253.871 127.492L254.282 127.235L201.937 84.9603Z" fill="#2672AB"/>
<path opacity="0.3" d="M205.09 83.1188L204.679 83.3863L257.035 125.661L257.445 125.393L205.09 83.1188Z" fill="#2672AB"/>
<path opacity="0.3" d="M208.253 81.2876L207.842 81.5448L260.198 123.819L260.608 123.562L208.253 81.2876Z" fill="#2672AB"/>
<path opacity="0.3" d="M211.416 79.4459L211.005 79.7134L263.361 121.988L263.772 121.72L211.416 79.4459Z" fill="#2672AB"/>
<path opacity="0.3" d="M214.579 77.6144L214.168 77.8716L266.524 120.156L266.935 119.889L214.579 77.6144Z" fill="#2672AB"/>
<path opacity="0.3" d="M217.742 75.7728L217.331 76.0403L269.677 118.315L270.087 118.047L217.742 75.7728Z" fill="#2672AB"/>
<path opacity="0.3" d="M220.905 73.9418L220.494 74.199L272.84 116.484L273.261 116.216L220.905 73.9418Z" fill="#2672AB"/>
<path opacity="0.3" d="M224.068 72.1L223.658 72.3675L276.003 114.642L276.414 114.374L224.068 72.1Z" fill="#2672AB"/>
<path opacity="0.3" d="M227.231 70.2687L226.821 70.5259L279.166 112.8L279.577 112.543L227.231 70.2687Z" fill="#2672AB"/>
<path opacity="0.3" d="M230.394 68.427L229.984 68.6945L282.329 110.969L282.74 110.701L230.394 68.427Z" fill="#2672AB"/>
<path opacity="0.3" d="M233.557 66.5958L233.147 66.853L285.492 109.128L285.903 108.87L233.557 66.5958Z" fill="#2672AB"/>
<path opacity="0.3" d="M236.721 64.7543L236.31 65.0218L288.655 107.296L289.066 107.029L236.721 64.7543Z" fill="#2672AB"/>
<path opacity="0.3" d="M239.884 62.9227L239.473 63.1799L291.819 105.454L292.229 105.197L239.884 62.9227Z" fill="#2672AB"/>
<path opacity="0.3" d="M243.047 61.0813L242.636 61.3488L294.982 103.623L295.393 103.356L243.047 61.0813Z" fill="#2672AB"/>
<path opacity="0.3" d="M246.21 59.2499L245.799 59.5071L298.145 101.782L298.556 101.524L246.21 59.2499Z" fill="#2672AB"/>
<path opacity="0.3" d="M249.373 57.4082L248.962 57.6757L301.308 99.9502L301.719 99.6827L249.373 57.4082Z" fill="#2672AB"/>
<path opacity="0.3" d="M252.536 55.577L252.126 55.8342L304.471 98.1087L304.882 97.8515L252.536 55.577Z" fill="#2672AB"/>
<path opacity="0.3" d="M255.7 53.7355L255.289 54.003L307.634 96.2774L308.045 96.0099L255.7 53.7355Z" fill="#2672AB"/>
<path opacity="0.3" d="M258.863 51.9042L258.452 52.1614L310.797 94.4358L311.208 94.1786L258.863 51.9042Z" fill="#2672AB"/>
<path opacity="0.3" d="M262.026 50.0625L261.605 50.33L313.96 92.6045L314.371 92.337L262.026 50.0625Z" fill="#2672AB"/>
<path opacity="0.3" d="M265.189 48.2313L264.778 48.4885L317.124 90.763L317.534 90.5058L265.189 48.2313Z" fill="#2672AB"/>
<path opacity="0.3" d="M268.352 46.3896L267.931 46.6571L320.287 88.9316L320.697 88.6641L268.352 46.3896Z" fill="#2672AB"/>
<path opacity="0.3" d="M271.505 44.5585L271.094 44.8157L323.45 87.0901L323.86 86.8329L271.505 44.5585Z" fill="#2672AB"/>
</g>
<path d="M158.095 75.1043V77.0694L174.763 67.4498V65.4745L158.095 75.1043Z" fill="#72B5E8"/>
<path d="M158.094 75.1042V77.0692L146.87 70.5156V68.5505L158.094 75.1042Z" fill="#A8CFF0"/>
<path d="M146.87 68.5506L158.095 75.1042L174.763 65.4744L163.517 58.9208L146.87 68.5506Z" fill="#F0F8FF"/>
<path d="M150.228 68.5609L163.517 60.8756L171.394 65.4745L158.105 73.1495L150.228 68.5609Z" fill="#084C94"/>
<path d="M163.517 62.46L170.038 66.2564L171.394 65.4745L163.517 60.8756L150.228 68.5609L151.594 69.3531L163.517 62.46Z" fill="#72B5E8"/>
<path d="M163.517 62.46L170.038 66.2564L171.394 65.4745L163.517 60.8756V62.46Z" fill="#A8CFF0"/>
<path d="M183.163 60.6697V62.645L199.842 53.0255V51.0502L183.163 60.6697Z" fill="#72B5E8"/>
<path d="M183.174 60.6699V62.6453L171.949 56.0916V54.1266L183.174 60.6699Z" fill="#A8CFF0"/>
<path d="M171.949 54.1266L183.174 60.67L199.842 51.0504L188.596 44.4968L171.949 54.1266Z" fill="#F0F8FF"/>
<path d="M175.307 54.1266L188.596 46.4515L196.473 51.0504L183.184 58.7254L175.307 54.1266Z" fill="#084C94"/>
<path d="M188.596 48.0256L195.117 51.8323L196.473 51.0504L188.596 46.4515L175.307 54.1266L176.673 54.929L188.596 48.0256Z" fill="#72B5E8"/>
<path d="M188.596 48.0256L195.117 51.8323L196.473 51.0504L188.596 46.4515V48.0256Z" fill="#A8CFF0"/>
<path d="M208.242 46.2147V48.1798L224.921 38.5603V36.5952L208.242 46.2147Z" fill="#72B5E8"/>
<path d="M208.253 46.2149V48.1799L197.028 41.6263V39.6613L208.253 46.2149Z" fill="#A8CFF0"/>
<path d="M197.028 39.6611L208.253 46.2147L224.921 36.5952L213.675 30.0312L197.028 39.6611Z" fill="#F0F8FF"/>
<path d="M200.386 39.6714L213.675 31.9861L221.552 36.5849L208.253 44.26L200.386 39.6714Z" fill="#084C94"/>
<path d="M213.675 33.5705L220.186 37.3668L221.552 36.5849L213.675 31.9861L200.386 39.6714L201.752 40.4636L213.675 33.5705Z" fill="#72B5E8"/>
<path d="M213.675 33.5705L220.186 37.3668L221.552 36.5849L213.675 31.9861V33.5705Z" fill="#A8CFF0"/>
<path d="M233.321 31.6468V33.6221L250 23.9923V22.0272L233.321 31.6468Z" fill="#72B5E8"/>
<path d="M233.332 31.6469V33.6222L222.107 27.0583V25.0933L233.332 31.6469Z" fill="#A8CFF0"/>
<path d="M222.107 25.0931L233.332 31.6467L250 22.0272L238.754 15.4633L222.107 25.0931Z" fill="#F0F8FF"/>
<path d="M225.465 25.1034L238.754 17.4181L246.631 22.0169L233.332 29.692L225.465 25.1034Z" fill="#084C94"/>
<path d="M238.754 19.0025L245.265 22.7988L246.631 22.0169L238.754 17.4181L225.465 25.1034L226.831 25.8956L238.754 19.0025Z" fill="#72B5E8"/>
<path d="M238.754 19.0025L245.265 22.7989L246.631 22.017L238.754 17.4181V19.0025Z" fill="#A8CFF0"/>
<path opacity="0.2" d="M92.8192 174.715L66.4769 159.602L70.4103 157.39L25.8185 131.865L0 146.423L44.5713 171.927L48.3609 169.798L74.8366 184.983L92.8192 174.715Z" fill="#92B4D1"/>
<path d="M49.09 130.816H48.1555V133.151H49.09V130.816Z" fill="#2672AB"/>
<path d="M49.09 134.602H48.1555V135.836H49.09V134.602Z" fill="#2672AB"/>
<path d="M48.8846 132.565H48.3711V135.024H48.8846V132.565Z" fill="#2672AB"/>
<path d="M50.3018 113.12L61.2188 147.864L62.6669 147.03L51.7499 112.287L50.3018 113.12Z" fill="#03336E"/>
<path d="M50.3121 113.12L61.2187 147.864L59.7912 147.03L48.8743 112.287L50.3121 113.12Z" fill="#084C94"/>
<path d="M48.8743 112.287L50.3121 113.12L51.7499 112.287L50.3121 111.453L48.8743 112.287Z" fill="#084C94"/>
<path d="M46.8614 117.39L48.2375 121.659L57.2237 116.505V111.289L46.8614 117.39Z" fill="#72B5E8"/>
<path d="M57.2238 111.289V116.505L60.6744 118.429L60.9106 113.223L57.2238 111.289Z" fill="#A8CFF0"/>
<path d="M34.6711 160.775V167.134L62.0814 151.166V144.808L34.6711 160.775Z" fill="#72B5E8"/>
<path d="M34.6814 160.775V167.133L11.112 153.44V147.092L34.6814 160.775Z" fill="#A8CFF0"/>
<path d="M11.112 147.092L34.6814 160.775L62.0814 144.808L38.4915 131.104L11.112 147.092Z" fill="#D1EBFF"/>
<path d="M11.112 135.836V153.512L38.5223 137.544V119.859L11.112 135.836Z" fill="#72B5E8"/>
<path d="M11.1223 135.837V153.512L2.32104 148.378V140.302L6.30575 133.491L11.1223 135.837Z" fill="#A8CFF0"/>
<path d="M6.30569 133.491L11.1223 135.836L38.5223 119.859L33.6852 117.503L6.30569 133.491Z" fill="#D1EBFF"/>
<path d="M34.6711 159.222V161.053L62.0814 145.086V143.254L34.6711 159.222Z" fill="#03336E"/>
<path d="M34.6814 159.222V161.053L11.112 147.359V145.538L34.6814 159.222Z" fill="#084C94"/>
<path d="M11.112 145.538L34.6814 159.222L62.0814 143.254L38.4915 129.561L11.112 145.538Z" fill="#2672AB"/>
<path d="M35.7803 103.85V136.196L37.2283 135.363V103.017L35.7803 103.85Z" fill="#03336E"/>
<path d="M35.7802 103.85V136.197L34.3528 135.363V103.027L35.7802 103.85Z" fill="#084C94"/>
<path d="M34.3528 103.027L35.7803 103.85L37.2283 103.017L35.7803 102.183L34.3528 103.027Z" fill="#084C94"/>
<path d="M41.2747 130.703L40.1553 128.933L39.7651 128.912L39.2413 127.997L40.5045 127.277L41.0693 128.223L40.8639 128.635L41.8498 130.281L41.2747 130.703Z" fill="#03336E"/>
<path d="M27.6773 144.746L31.4772 153.326L50.1375 142.544L46.3274 133.974L27.6773 144.746Z" fill="#72B5E8"/>
<path d="M27.6876 144.746L31.4875 153.326L15.8156 144.273V137.915L27.6876 144.746Z" fill="#A8CFF0"/>
<path d="M15.8156 137.915L27.6876 144.746L46.3274 133.975L34.4349 127.123L15.8156 137.915Z" fill="#D1EBFF"/>
<path d="M15.8156 137.915L27.6876 144.746L46.3274 133.974L27.7286 144.448L15.8156 137.915Z" fill="white"/>
<path d="M40.2785 131.145L43.1746 129.437L49.1517 136.361L42.8563 139.993L40.2785 131.145Z" fill="#084C94"/>
<path d="M41.1103 130.641L43.1745 129.437L49.1516 136.361L44.4069 139.057L41.1103 130.641Z" fill="#03336E"/>
<path d="M43.4929 125.517C43.7702 126.022 42.3632 127.359 40.3298 128.511C38.2963 129.664 36.4272 130.199 36.1499 129.694C35.8726 129.19 37.2796 127.863 39.313 126.711C41.3465 125.559 43.2156 125.024 43.4929 125.517Z" fill="#03336E"/>
<path d="M51.7088 161.845V168.275L67.9866 158.851V152.421L51.7088 161.845Z" fill="#487EE6"/>
<path d="M51.7192 161.845V168.275L43.493 163.46V157.112L51.7192 161.845Z" fill="#A8CFF0"/>
<path d="M43.493 157.113L51.7191 161.845L67.9866 152.421L59.7399 147.688L43.493 157.113Z" fill="#D1EBFF"/>
<path d="M51.1234 170.107C51.2 170.823 51.0876 171.546 50.7974 172.205C50.5072 172.864 50.0495 173.436 49.47 173.862L46.2042 175.765C45.1772 176.362 45.8139 175.004 44.1502 174.068C42.4356 172.951 41.0081 171.444 39.9838 169.671C38.9596 167.898 38.3673 165.907 38.2552 163.862C38.2552 162.01 36.5402 161.999 37.5877 161.382L41.0589 159.448C41.726 159.167 42.454 159.062 43.1732 159.143C43.8924 159.224 44.5789 159.488 45.1669 159.911C46.8916 161.02 48.3302 162.521 49.3654 164.293C50.4006 166.065 51.0029 168.057 51.1234 170.107Z" fill="#03336E"/>
<path d="M43.7534 176.82C46.0362 175.491 46.0223 171.2 43.7224 167.237C41.4224 163.274 37.7074 161.139 35.4245 162.469C33.1417 163.798 33.1556 168.089 35.4555 172.052C37.7555 176.015 41.4706 178.15 43.7534 176.82Z" fill="#084C94"/>
<path d="M42.0859 161.742C41.5087 161.327 40.8364 161.064 40.131 160.978C39.4256 160.891 38.7099 160.985 38.0499 161.248C38.6533 161.122 39.2757 161.118 39.8807 161.236C40.4856 161.355 41.0609 161.593 41.5724 161.938C43.2878 163.055 44.7164 164.561 45.7423 166.334C46.7683 168.107 47.3628 170.097 47.4776 172.144C47.4776 174.098 46.769 175.436 45.6188 176.012C47.0566 175.611 47.9911 174.17 47.9911 171.897C47.8708 169.859 47.2736 167.878 46.2478 166.114C45.222 164.35 43.7963 162.852 42.0859 161.742Z" fill="#2672AB"/>
<path d="M41.7985 164.582C39.7445 163.358 37.9781 164.335 37.9781 166.763C38.0549 168.085 38.4407 169.371 39.1042 170.516C39.7678 171.662 40.6907 172.635 41.7985 173.358C43.9038 174.572 45.6189 173.594 45.6189 171.177C45.5436 169.854 45.1585 168.568 44.4948 167.422C43.8311 166.277 42.9074 165.304 41.7985 164.582Z" fill="#A8CFF0"/>
<path d="M43.1129 172.483C42.0059 171.76 41.0842 170.787 40.4223 169.641C39.7604 168.495 39.3769 167.21 39.3028 165.888C39.2757 165.255 39.4288 164.627 39.7444 164.078C38.6661 164.232 37.9369 165.189 37.9369 166.763C38.0138 168.085 38.3995 169.37 39.0631 170.516C39.7267 171.661 40.6495 172.635 41.7573 173.358C43.2156 174.191 44.4788 173.985 45.1258 172.977C44.4189 173.039 43.7114 172.865 43.1129 172.483Z" fill="#72B5E8"/>
<path d="M44.2118 169.973C44.2118 171.249 43.3183 171.753 42.2195 171.115C41.641 170.737 41.1592 170.228 40.8131 169.63C40.467 169.031 40.2663 168.359 40.2271 167.668C40.2271 166.403 41.1206 165.899 42.2195 166.537C42.7977 166.912 43.2795 167.419 43.6257 168.016C43.9718 168.613 44.1726 169.284 44.2118 169.973Z" fill="#03336E"/>
<path d="M43.6675 170.354C43.6675 171.619 42.774 172.133 41.6752 171.496C41.0967 171.118 40.6149 170.609 40.2688 170.01C39.9228 169.411 39.722 168.74 39.6828 168.049C39.6828 166.783 40.5763 166.269 41.6752 166.907C42.2537 167.285 42.7354 167.794 43.0815 168.392C43.4276 168.991 43.6283 169.663 43.6675 170.354Z" fill="#084C94"/>
<path d="M32.4529 158.964L38.9639 157.401L44.9615 160.796L48.1658 158.913L41.8909 155.384L35.6262 157.123L32.4529 158.964Z" fill="#D1EBFF"/>
<path d="M32.4529 158.965L33.7571 159.685L38.8818 158.625L44.8999 161.907L44.9615 160.796L38.9639 157.401L32.4529 158.965Z" fill="#A8CFF0"/>
<path d="M48.1657 158.913V160.076L44.9 161.907L44.9616 160.796L48.1657 158.913Z" fill="#72B5E8"/>
<path d="M61.3933 147.04L42.5071 157.987L37.7624 142.575L56.1762 131.906L61.3933 147.04Z" fill="#03336E"/>
<path d="M25.2126 136.896L23.097 126.834C23.0111 126.413 23.0649 125.974 23.2502 125.586C23.4356 125.198 23.7424 124.881 24.124 124.684L30.3475 121.279C30.4501 121.223 30.5638 121.192 30.6801 121.187C30.7964 121.183 30.9123 121.204 31.0191 121.251C31.1258 121.297 31.2207 121.368 31.2964 121.456C31.3722 121.545 31.427 121.649 31.4566 121.762L33.7571 130.61L25.2126 136.896Z" fill="#2672AB"/>
<path d="M31.58 139.283V140.548L40.104 135.528V134.262L31.58 139.283Z" fill="#2672AB"/>
<path d="M31.59 139.283V140.548L25.2125 136.896V135.631L31.59 139.283Z" fill="#487EE6"/>
<path d="M25.2125 135.631L31.5901 139.283L40.1038 134.262L33.7159 130.61L25.2125 135.631Z" fill="#72B5E8"/>
<path d="M25.2125 135.631L31.5901 139.283L40.1038 134.262L31.6004 139.016L25.2125 135.631Z" fill="#A8CFF0"/>
<path d="M18.3728 154.942C18.4493 155.658 18.3369 156.382 18.0467 157.041C17.7566 157.7 17.2988 158.271 16.7193 158.697L13.4433 160.6C12.4163 161.197 13.0633 159.839 11.4406 158.903C9.7247 157.786 8.29571 156.281 7.26968 154.507C6.24365 152.734 5.64951 150.743 5.53548 148.697C5.53548 146.845 3.83067 146.835 4.8782 146.207L8.34941 144.283C9.01566 143.998 9.74435 143.891 10.4643 143.972C11.1843 144.053 11.871 144.32 12.4573 144.746C14.175 145.859 15.606 147.362 16.634 149.134C17.6619 150.906 18.2577 152.896 18.3728 154.942Z" fill="#03336E"/>
<path d="M14.9529 156.886C14.9529 160.642 12.3136 162.144 9.04777 160.261C7.33183 159.145 5.90287 157.639 4.87684 155.865C3.85081 154.092 3.25664 152.101 3.14261 150.055C3.14261 146.31 5.79223 144.798 9.04777 146.691C10.7635 147.805 12.1925 149.309 13.2186 151.08C14.2448 152.852 14.839 154.841 14.9529 156.886Z" fill="#084C94"/>
<path d="M9.3353 146.547C8.75543 146.133 8.08202 145.871 7.37568 145.783C6.66935 145.695 5.95225 145.784 5.28894 146.042C6.51258 145.798 7.78301 146.05 8.8218 146.742C10.5389 147.857 11.9688 149.363 12.9949 151.136C14.0211 152.91 14.6146 154.901 14.727 156.948C14.727 158.903 14.0081 160.24 12.8681 160.816C14.3059 160.415 15.2405 158.975 15.2405 156.701C15.1186 154.664 14.5207 152.683 13.495 150.919C12.4693 149.156 11.0445 147.658 9.3353 146.547Z" fill="#2672AB"/>
<path d="M9.00675 149.386C6.90142 148.162 5.18634 149.139 5.18634 151.557C5.25997 152.88 5.64436 154.167 6.30823 155.313C6.9721 156.459 7.8967 157.431 9.00675 158.152C11.1121 159.376 12.8169 158.399 12.8169 155.981C12.7452 154.659 12.3627 153.372 11.7006 152.226C11.0385 151.08 10.1155 150.107 9.00675 149.386Z" fill="#A8CFF0"/>
<path d="M10.3623 157.277C9.25364 156.558 8.32989 155.587 7.6661 154.443C7.00231 153.299 6.61718 152.014 6.54196 150.693C6.51797 150.059 6.67467 149.43 6.99381 148.882C5.91548 149.036 5.18634 149.993 5.18634 151.557C5.25997 152.88 5.64436 154.167 6.30822 155.313C6.97209 156.459 7.89667 157.431 9.00671 158.152C10.4548 158.995 11.7282 158.79 12.3649 157.781C11.6598 157.843 10.9545 157.666 10.3623 157.277Z" fill="#72B5E8"/>
<path d="M11.379 154.911C11.379 156.176 10.4855 156.681 9.38669 156.043C8.80516 155.667 8.32056 155.159 7.97251 154.56C7.62446 153.961 7.42283 153.288 7.38409 152.596C7.38409 151.331 8.27757 150.827 9.38669 151.465C9.96517 151.842 10.4469 152.351 10.793 152.95C11.139 153.549 11.3398 154.22 11.379 154.911Z" fill="#03336E"/>
<path d="M10.9169 155.158C10.9169 156.423 10.0234 156.938 8.92455 156.3C8.34605 155.922 7.86434 155.413 7.51825 154.815C7.17216 154.216 6.97138 153.544 6.93216 152.853C6.93216 151.588 7.82566 151.074 8.92455 151.711C9.50306 152.089 9.98479 152.598 10.3309 153.197C10.677 153.795 10.8777 154.467 10.9169 155.158Z" fill="#084C94"/>
<path d="M14.6243 113.254V145.61L16.0724 144.767V112.42L14.6243 113.254Z" fill="#03336E"/>
<path d="M14.6346 113.254V145.61L13.1968 144.767V112.431L14.6346 113.254Z" fill="#084C94"/>
<path d="M13.1968 112.431L14.6346 113.254L16.0723 112.421L14.6346 111.587L13.1968 112.431Z" fill="#084C94"/>
<path d="M31.4258 123.995L42.3427 158.738L43.7805 157.905L32.8739 123.161L31.4258 123.995Z" fill="#03336E"/>
<path d="M31.4258 123.995L42.3427 158.738L40.9049 157.905L29.9984 123.172L31.4258 123.995Z" fill="#084C94"/>
<path d="M29.9984 123.172L31.4258 123.995L32.8739 123.161L31.4258 122.328L29.9984 123.172Z" fill="#084C94"/>
<path d="M66.0661 150.188V162.534C66.0646 163.254 66.27 163.959 66.658 164.564C67.0459 165.17 67.5999 165.651 68.2536 165.95L87.5405 174.828C87.8386 174.966 88.1646 175.032 88.4925 175.021C88.8205 175.01 89.1415 174.923 89.4301 174.767C89.537 174.707 89.6261 174.62 89.6881 174.514C89.7501 174.408 89.7828 174.288 89.7828 174.165C89.7828 174.042 89.7501 173.922 89.6881 173.816C89.6261 173.71 89.537 173.623 89.4301 173.563L71.9713 163.779C71.3865 163.452 70.8992 162.974 70.5599 162.395C70.2205 161.817 70.0413 161.158 70.0406 160.487V147.997L66.0661 150.188Z" fill="#D1EBFF"/>
<path d="M88.5572 174.571L69.26 165.693C68.6063 165.394 68.0524 164.913 67.6644 164.307C67.2765 163.701 67.071 162.997 67.0726 162.277V149.931L69.9995 148.254V147.997L66.0661 150.24V162.585C66.0646 163.305 66.27 164.01 66.658 164.616C67.0459 165.222 67.5999 165.703 68.2536 166.001L87.5405 174.88C87.8276 175.017 88.1416 175.088 88.4596 175.088C88.7777 175.088 89.0917 175.017 89.3788 174.88C89.0872 174.833 88.8079 174.728 88.5572 174.571Z" fill="#A8CFF0"/>
<path d="M62.564 115.641V171.743L65.5422 170.035V113.923L62.564 115.641Z" fill="#72B5E8"/>
<path d="M62.5744 115.641V171.743L59.6167 170.035V113.933L62.5744 115.641Z" fill="#A8CFF0"/>
<path d="M59.6167 113.933L62.5744 115.641L65.5424 113.922L62.5744 112.204L59.6167 113.933Z" fill="#D1EBFF"/>
<path d="M59.6167 113.933L62.5744 115.641L65.5424 113.923L62.5744 115.322L59.6167 113.933Z" fill="white"/>
<path d="M54.6357 127.884V131.032L62.6051 126.423L62.5949 123.274L54.6357 127.884Z" fill="#72B5E8"/>
<path d="M54.6356 127.884V131.032L52.2737 129.653V126.546L54.6356 127.884Z" fill="#084C94"/>
<path d="M52.2737 126.546L54.6357 127.884L62.5949 123.274L60.2328 121.927L52.2737 126.546Z" fill="#D1EBFF"/>
<path d="M54.6357 173.183V176.331L62.6051 171.722L62.5949 168.574L54.6357 173.183Z" fill="#72B5E8"/>
<path d="M54.6356 173.183V176.331L52.2737 174.963V171.845L54.6356 173.183Z" fill="#084C94"/>
<path d="M52.2737 171.845L54.6357 173.183L62.5949 168.574L60.2328 167.236L52.2737 171.845Z" fill="#D1EBFF"/>
<path d="M53.424 120.661V176.773L56.4022 175.055V118.953L53.424 120.661Z" fill="#72B5E8"/>
<path d="M53.4343 120.661V176.773L50.4867 175.055V118.953L53.4343 120.661Z" fill="#A8CFF0"/>
<path d="M50.4867 118.953L53.4342 120.661L56.4023 118.953L53.4342 117.235L50.4867 118.953Z" fill="#D1EBFF"/>
<path d="M50.4867 118.953L53.4342 120.661L56.4023 118.953L53.4445 120.363L50.4867 118.953Z" fill="white"/>
<path d="M51.9141 157.967V177.504L53.8859 178.656V159.15L51.9141 157.967Z" fill="#A8CFF0"/>
<path d="M51.9141 157.967L67.5861 148.903L69.5579 150.045L53.8859 159.15L51.9141 157.967Z" fill="#D1EBFF"/>
<path d="M53.886 178.656V159.15L69.5579 150.045V156.927L68.4693 157.545V151.989L55.0671 159.633V177.905L53.886 178.656Z" fill="#72B5E8"/>
<path d="M28.4989 138.172H28.0881V141.269H28.4989V138.172Z" fill="#03336E"/>
<path d="M31.4258 122.441V123.974L51.7705 112.359V110.826L31.4258 122.441Z" fill="#03336E"/>
<path d="M31.4259 122.441V123.974L13.1968 113.501V111.968L31.4259 122.441Z" fill="#084C94"/>
<path d="M13.1968 111.968L31.4258 122.441L51.7705 110.826L33.5312 100.352L13.1968 111.968Z" fill="#2672AB"/>
<path d="M13.1968 111.968L31.4258 122.441L51.7705 110.826L31.4977 122.153L13.1968 111.968Z" fill="#487EE6"/>
<path d="M68.4692 151.989V157.545L67.6785 158.008V152.442L68.4692 151.989Z" fill="#A8CFF0"/>
<path d="M55.0671 156.546V168.892C55.0695 169.614 55.2776 170.319 55.667 170.926C56.0564 171.533 56.6107 172.016 57.2649 172.318L76.5517 181.187C76.8473 181.327 77.172 181.395 77.4989 181.384C77.8258 181.373 78.1454 181.284 78.4311 181.125C78.5381 181.065 78.6271 180.978 78.6891 180.872C78.7511 180.766 78.7838 180.646 78.7838 180.523C78.7838 180.4 78.7511 180.28 78.6891 180.174C78.6271 180.068 78.5381 179.981 78.4311 179.921L60.9209 170.137C60.3387 169.808 59.8542 169.329 59.5168 168.751C59.1794 168.172 59.0012 167.515 59.0005 166.845V154.303L55.0671 156.546Z" fill="#D1EBFF"/>
<path d="M77.5582 180.919L58.2303 172.051C57.5754 171.753 57.02 171.272 56.6304 170.666C56.2407 170.061 56.0331 169.355 56.0325 168.635V156.289L58.9697 154.622V154.272L55.0261 156.515V168.861C55.0285 169.583 55.2366 170.289 55.626 170.895C56.0154 171.502 56.5697 171.985 57.2238 172.287L76.5106 181.156C76.7946 181.297 77.1075 181.371 77.4247 181.371C77.7418 181.371 78.0546 181.297 78.3387 181.156C78.0657 181.128 77.8007 181.048 77.5582 180.919Z" fill="#A8CFF0"/>
<path d="M51.9143 121.69L44.0784 117.143L56.6179 109.89L61.7734 112.811L60.9107 113.223L57.2238 111.289L46.8615 117.39L52.5715 121.237L51.9143 121.69Z" fill="#D1EBFF"/>
<path d="M51.9142 121.69V126.752L44.0784 122.246V117.153L51.9142 121.69Z" fill="#A8CFF0"/>
<path d="M52.5715 121.237V126.443L51.9141 126.752V121.69L52.5715 121.237Z" fill="#72B5E8"/>
<path d="M29.0123 137.925C29.0123 138.067 28.9702 138.207 28.8912 138.325C28.8122 138.443 28.6999 138.536 28.5686 138.59C28.4372 138.645 28.2927 138.659 28.1532 138.631C28.0138 138.603 27.8857 138.535 27.7851 138.434C27.6846 138.333 27.6161 138.205 27.5884 138.065C27.5607 137.926 27.5749 137.781 27.6293 137.649C27.6837 137.518 27.7758 137.405 27.8941 137.326C28.0123 137.247 28.1513 137.205 28.2935 137.205C28.3882 137.203 28.4824 137.221 28.5702 137.257C28.658 137.292 28.7378 137.345 28.8049 137.413C28.8719 137.48 28.9248 137.56 28.9604 137.648C28.9961 137.736 29.0137 137.83 29.0123 137.925Z" fill="#084C94"/>
<path d="M29.3 142.133C29.3 142.812 28.8482 142.894 28.273 142.894C27.6979 142.894 27.246 142.812 27.246 142.133C27.246 141.454 27.6979 140.435 28.273 140.435C28.8482 140.435 29.3 141.454 29.3 142.133Z" fill="#487EE6"/>
<g style="mix-blend-mode:color-dodge">
<path d="M39.0255 157.473L44.8999 160.837L48.2274 158.985L44.9307 160.456L39.0255 157.473Z" fill="white"/>
</g>
<path d="M25.2125 135.631L26.0752 136.536L23.3126 126.207L25.2125 135.631Z" fill="#487EE6"/>
<path d="M123.762 225.156V227.853L121.418 226.514V223.798L123.762 225.156Z" fill="#487EE6"/>
<path d="M123.762 225.156V227.853L147.174 214.292V211.594L123.762 225.156Z" fill="#2672AB"/>
<path d="M147.173 211.594L123.762 225.156L121.418 223.798L144.829 210.236L147.173 211.594Z" fill="#72B5E8"/>
<path d="M115.226 220.348V223.045L112.863 221.687V218.99L115.226 220.348Z" fill="#487EE6"/>
<path d="M115.208 220.348V223.045L138.619 209.484V206.786L115.208 220.348Z" fill="#2672AB"/>
<path d="M138.619 206.786L115.208 220.348L112.863 218.99L136.292 205.428L138.619 206.786Z" fill="#72B5E8"/>
<path d="M106.763 215.338V218.054L104.418 216.696V213.998L106.763 215.338Z" fill="#487EE6"/>
<path d="M106.763 215.338V218.054L130.174 204.474V201.776L106.763 215.338Z" fill="#2672AB"/>
<path d="M130.174 201.776L106.763 215.338L104.418 213.998L127.829 200.418L130.174 201.776Z" fill="#72B5E8"/>
<path d="M121.491 220.476V229.303L123.836 227.945V219.118L121.491 220.476Z" fill="#2672AB"/>
<path d="M121.491 220.476V229.303L119.164 227.945V219.118L121.491 220.476Z" fill="#487EE6"/>
<path d="M119.164 219.118L121.491 220.476L123.836 219.118L121.491 217.76L119.164 219.118Z" fill="#72B5E8"/>
<path d="M112.918 215.521V224.348L115.281 222.99V214.163L112.918 215.521Z" fill="#2672AB"/>
<path d="M112.936 215.521V224.348L110.61 222.99V214.182L112.936 215.521Z" fill="#487EE6"/>
<path d="M110.61 214.182L112.936 215.521L115.281 214.163L112.936 212.805L110.61 214.182Z" fill="#72B5E8"/>
<path d="M104.363 210.566V219.393L106.708 218.035V209.227L104.363 210.566Z" fill="#2672AB"/>
<path d="M104.363 210.566V219.393L102.037 218.035V209.227L104.363 210.566Z" fill="#487EE6"/>
<path d="M102.037 209.227L104.363 210.566L106.708 209.227L104.363 207.869L102.037 209.227Z" fill="#72B5E8"/>
<path d="M155.783 210.493V219.32L158.128 217.962V209.135L155.783 210.493Z" fill="#2672AB"/>
<path d="M155.783 210.493V219.32L153.457 217.962V209.135L155.783 210.493Z" fill="#487EE6"/>
<path d="M153.457 209.135L155.783 210.493L158.128 209.135L155.783 207.777L153.457 209.135Z" fill="#72B5E8"/>
<path d="M132.409 230.166V232.863L130.064 231.505V228.808L132.409 230.166Z" fill="#487EE6"/>
<path d="M132.409 230.165V232.863L155.802 219.283V216.604L132.409 230.165Z" fill="#2672AB"/>
<path d="M155.802 216.604L132.409 230.166L130.064 228.808L153.475 215.228L155.802 216.604Z" fill="#72B5E8"/>
<path d="M127.738 224.073V226.771L130.082 225.413V222.715L127.738 224.073Z" fill="#487EE6"/>
<path d="M127.738 224.073V226.77L104.326 213.209V210.511L127.738 224.073Z" fill="#487EE6"/>
<path d="M104.326 210.511L127.738 224.073L130.082 222.715L106.653 209.153L104.326 210.511Z" fill="#487EE6"/>
<path d="M132.409 224.165V226.862L130.064 225.523V222.825L132.409 224.165Z" fill="#487EE6"/>
<path d="M132.409 224.164V226.862L155.802 213.3V210.603L132.409 224.164Z" fill="#2672AB"/>
<path d="M155.802 210.603L132.409 224.165L130.064 222.825L153.475 209.245L155.802 210.603Z" fill="#487EE6"/>
<path d="M130.064 225.412V234.239L127.719 232.881V224.073L130.064 225.412Z" fill="#487EE6"/>
<path d="M127.719 224.073L130.064 225.413L132.391 224.055L130.064 222.697L127.719 224.073Z" fill="#487EE6"/>
<path d="M102 209.227L129.991 225.413L158.128 209.135L129.991 192.876L102 209.227Z" fill="#72B5E8"/>
<path d="M102 209.227L129.991 225.412L158.128 209.135L129.991 224.715L102 209.227Z" fill="#A8CFF0"/>
<path d="M129.844 196.289V222.88L155.453 208.015V181.204L129.844 196.289Z" fill="#FFBB00"/>
<g style="mix-blend-mode:multiply" opacity="0.3">
<path d="M132.72 197.922L152.577 186.232V206.364L132.72 217.888V197.922Z" fill="#C48500"/>
</g>
<g style="mix-blend-mode:multiply" opacity="0.5">
<path d="M151.735 186.728V205.868L132.72 216.916V217.888L152.577 206.364V186.232L151.735 186.728Z" fill="#C48500"/>
</g>
<path d="M129.881 196.289V222.88L105.572 208.805V181.993L129.881 196.289Z" fill="#FFCC00"/>
<g style="mix-blend-mode:multiply" opacity="0.3">
<path d="M108.448 207.153V187.021L127.005 197.922V217.888L108.448 207.153Z" fill="#C48500"/>
</g>
<g style="mix-blend-mode:multiply" opacity="0.3">
<path d="M109.199 206.786V187.462L108.448 187.021V207.153L127.005 217.888V217.099L109.199 206.786Z" fill="#C48500"/>
</g>
<path d="M105.572 181.993L129.881 196.289L155.454 181.204L131.09 167L105.572 181.993Z" fill="#FFDE17"/>
<path d="M105.572 181.993L129.881 196.289L155.454 181.204L129.771 195.316L105.572 181.993Z" fill="#FFEA9C"/>
<path d="M111.251 181.993L131.09 170.322L149.775 181.223L129.863 192.949L111.251 181.993Z" fill="#FFCC00"/>
<g style="mix-blend-mode:multiply" opacity="0.3">
<path d="M131.09 171.276L148.969 181.7L149.775 181.223L131.09 170.322L111.251 181.993L112.039 182.471L131.09 171.276Z" fill="#C48500"/>
</g>
<path d="M142.979 196.803L140.945 203.097L142.264 202.345V209.832L143.693 209.025V201.519L144.994 200.748L142.979 196.803Z" fill="#A16D00"/>
<path d="M149.94 197.904L147.906 193.958L145.873 200.253L147.192 199.482V206.988L148.621 206.162V198.656L149.94 197.904Z" fill="#A16D00"/>
<path d="M111.452 205.593L110.628 205.116V196.271L111.452 196.748V205.593Z" fill="#A16D00"/>
<path d="M112.845 204.914L112.002 204.437V197.078L112.845 197.555V204.914Z" fill="#A16D00"/>
<path d="M114.97 206.144L114.145 205.667V198.308L114.97 198.785V206.144Z" fill="#A16D00"/>
<path d="M113.687 205.391L113.302 205.171V197.812L113.687 198.032V205.391Z" fill="#A16D00"/>
<path d="M116.179 206.841L115.336 206.345V198.987L116.179 199.482V206.841Z" fill="#A16D00"/>
<path d="M116.783 207.19L116.508 207.024V199.666L116.783 199.831V207.19Z" fill="#A16D00"/>
<path d="M121.546 209.942L121.271 209.777V202.418L121.546 202.583V209.942Z" fill="#A16D00"/>
<path d="M119.311 208.658L118.67 208.272V200.913L119.311 201.299V208.658Z" fill="#A16D00"/>
<path d="M118.139 207.979L117.314 207.483V200.124L118.139 200.62V207.979Z" fill="#A16D00"/>
<path d="M120.886 209.557L119.879 208.97V201.611L120.886 202.198V209.557Z" fill="#A16D00"/>
<path d="M122.645 210.585L122.004 210.199V202.84L122.645 203.226V210.585Z" fill="#A16D00"/>
<path d="M124.037 211.374L123.194 210.897V203.538L124.037 204.033V211.374Z" fill="#A16D00"/>
<path d="M125.228 213.576L124.587 213.19V204.345L125.228 204.712V213.576Z" fill="#A16D00"/>
</svg>
