<svg id="Layer_1" data-name="Layer 1" xmlns="http://www.w3.org/2000/svg" viewBox="0 0 79.14 23.51"><title>v2</title><line x1="3.38" y1="20.13" x2="3.38" y2="3.38" style="fill:#487ee6;stroke:#487ee6;stroke-linecap:round;stroke-linejoin:round;stroke-width:3px"/><line x1="20.13" y1="3.38" x2="20.13" y2="20.13" style="fill:#487ee6;stroke:#487ee6;stroke-linecap:round;stroke-linejoin:round;stroke-width:3px"/><line x1="3.38" y1="3.38" x2="20.13" y2="20.13" style="fill:#487ee6;stroke:#487ee6;stroke-linecap:round;stroke-linejoin:round;stroke-width:3px"/><circle cx="3.38" cy="3.38" r="3.38" style="fill:#487ee6"/><circle cx="3.38" cy="20.13" r="3.38" style="fill:#487ee6"/><circle cx="20.13" cy="20.13" r="3.38" style="fill:#487ee6"/><circle cx="20.13" cy="3.5" r="3.38" style="fill:#487ee6"/><path d="M28.39,9V.34h2.05l4,6.5h0V.34H36V9h-2L30,2.32h0V9Z" style="fill:#487ee6"/><path d="M38,9V.34H43.7V1.69H39.5V3.9h4V5.2h-4V7.65h4.42V9Z" style="fill:#487ee6"/><path d="M50.86,1.05l-1,1.11a1.85,1.85,0,0,0-.7-.54,2,2,0,0,0-.9-.21,1.9,1.9,0,0,0-1.06.3,1,1,0,0,0-.47.89,1.24,1.24,0,0,0,.1.5,1.07,1.07,0,0,0,.37.36,2.81,2.81,0,0,0,.5.24l.69.24c.28.09.52.16.7.23a4.57,4.57,0,0,1,.66.31,2.63,2.63,0,0,1,.62.46,2.18,2.18,0,0,1,.39.64,2.35,2.35,0,0,1,.16.89A2.49,2.49,0,0,1,50,8.53a3.55,3.55,0,0,1-2.26.71,4.51,4.51,0,0,1-1.67-.32A3.39,3.39,0,0,1,44.78,8l1.1-1a2.53,2.53,0,0,0,.85.69,2.4,2.4,0,0,0,1.06.26,1.84,1.84,0,0,0,1.09-.32,1.07,1.07,0,0,0,.47-1,1.18,1.18,0,0,0-.06-.39.77.77,0,0,0-.22-.33l-.29-.24a2,2,0,0,0-.44-.21l-.45-.16-.53-.17a5.37,5.37,0,0,1-.8-.31,4,4,0,0,1-.68-.43,1.83,1.83,0,0,1-.53-.72,2.43,2.43,0,0,1-.19-1A2.16,2.16,0,0,1,46.1.78,3.78,3.78,0,0,1,48.34.12,4.06,4.06,0,0,1,49.7.36,3.2,3.2,0,0,1,50.86,1.05Z" style="fill:#487ee6"/><path d="M52.47,9V.34H54V9Z" style="fill:#487ee6"/><path d="M55.92,9V.34h3.39a3.23,3.23,0,0,1,1.88.54A1.87,1.87,0,0,1,62,2.53a1.84,1.84,0,0,1-.41,1.2,2.23,2.23,0,0,1-1.1.7v0a2.19,2.19,0,0,1,1.36.65,2,2,0,0,1,.52,1.4,2.48,2.48,0,0,1-.28,1.18,2,2,0,0,1-.75.79,3.72,3.72,0,0,1-1.05.42A5.16,5.16,0,0,1,59.05,9Zm1.55-7.4V3.87h1.37A2,2,0,0,0,60,3.57a1,1,0,0,0,.4-.87A.9.9,0,0,0,60,1.87a2.57,2.57,0,0,0-1.3-.25Zm0,3.58V7.72h1.38c1.3,0,1.94-.43,1.94-1.3a1,1,0,0,0-.45-.94,2.78,2.78,0,0,0-1.42-.28Z" style="fill:#487ee6"/><path d="M63.86,9V.34h5.75V1.69H65.4V3.9h4V5.2h-4V7.65h4.43V9Z" style="fill:#487ee6"/><path d="M71.33,9V.34h1.55V7.65h3.69V9Z" style="fill:#487ee6"/><path d="M77.6,9V.34h1.54V9Z" style="fill:#487ee6"/><path d="M27.34,23.51l3.77-8.68h1.34l3.74,8.68H34.42l-.81-2H29.85l-.78,2ZM30,13.76a.83.83,0,0,1-.26-.6.86.86,0,0,1,.26-.6.81.81,0,0,1,.62-.25.88.88,0,0,1,.63.24.82.82,0,0,1,.26.61.84.84,0,0,1-.26.62.88.88,0,0,1-.63.24A.79.79,0,0,1,30,13.76Zm.41,6.44h2.69l-1.33-3.53Zm2-6.44a.82.82,0,0,1-.25-.6.85.85,0,0,1,.25-.6.83.83,0,0,1,.62-.25.93.93,0,0,1,.64.24.81.81,0,0,1,.25.61.83.83,0,0,1-.25.62A.93.93,0,0,1,33,14,.8.8,0,0,1,32.37,13.76Z" style="fill:#487ee6"/><path d="M37.05,23.51V14.83h3.07a6.38,6.38,0,0,1,1.72.23,5.14,5.14,0,0,1,1.52.71,3.39,3.39,0,0,1,1.13,1.36,4.51,4.51,0,0,1,.43,2,4.24,4.24,0,0,1-.43,1.95,3.62,3.62,0,0,1-1.12,1.37,5.27,5.27,0,0,1-1.54.76,5.76,5.76,0,0,1-1.71.26Zm1.54-1.35h1.29a6,6,0,0,0,1-.08,3.88,3.88,0,0,0,.91-.3,2.84,2.84,0,0,0,.78-.54,2.51,2.51,0,0,0,.53-.86,3.53,3.53,0,0,0,.2-1.21q0-3-3.38-3H38.59Z" style="fill:#487ee6"/><path d="M46.41,23.51V14.83H48v8.68Z" style="fill:#487ee6"/><path d="M49.87,23.51V14.83h2.41L54.54,21h0l2.23-6.17h2.42v8.68H57.7v-7h0l-2.64,7H54l-2.6-7h0v7Z" style="fill:#487ee6"/></svg>